<svg width="1440" height="1024" viewBox="0 0 1440 1024" fill="none" xmlns="http://www.w3.org/2000/svg">
<g clip-path="url(#clip0_5805_29931)">
<rect width="1440" height="1024" fill="url(#paint0_linear_5805_29931)"/>
<g opacity="0.4" clip-path="url(#clip1_5805_29931)">
<mask id="mask0_5805_29931" style="mask-type:luminance" maskUnits="userSpaceOnUse" x="-53" y="-127" width="1504" height="1138">
<path d="M1450.55 4.59948L-52.2567 -126.879V879.407L1450.55 1010.88V4.59948Z" fill="white"/>
</mask>
<g mask="url(#mask0_5805_29931)">
<path d="M1402.78 469.792C1378.41 456.269 1351.58 457.142 1328.1 469.296C1301.85 482.859 1291.91 513.264 1270.59 533.86C1229.91 573.169 1191.58 479.37 1149.9 515.834C1122.85 539.51 1108.71 591.606 1074.95 600.204C1043.83 608.128 1026.86 567.7 999.825 561.632C976.401 556.363 948.289 586.205 935.806 610.994C933.802 614.985 931.798 619.237 929.594 622.869V904.91L1450.57 950.489V493.636C1434.2 492.827 1418.61 478.603 1402.78 469.792Z" fill="#FDFDFD"/>
<path d="M662.055 881.504V691.919C657.427 675.414 640.014 689.186 630.737 689.662C612.543 690.647 601.843 679.668 598.136 655.635C594.93 634.807 596.513 610.996 588.117 593.738C577.878 572.555 555.737 567.539 535.099 567.444C514.46 567.349 492.519 570.461 474.786 560.155C452.485 547.094 441.123 515.087 419.583 500.382C399.666 486.765 373.197 489.863 349.232 501.513C327.772 511.952 305.53 540.678 284.812 547.761C264.093 554.844 250.588 532.872 238.465 517.824C223.19 498.522 201.717 485.141 178.353 480.364C152.986 475.206 129.783 480.723 111.168 455.89C88.6059 425.74 90.0286 365.326 58.0891 352.63C38.4525 344.874 14.1872 359.939 -6.2309 354.711C-25.8876 349.691 -37.7096 327.383 -52.3168 311.273V819.044L662.055 881.504Z" fill="#FDFDFD"/>
<path d="M1119.71 130.985C1111.97 126.424 1107.29 115.528 1100.95 109.219C1091.2 99.3284 1076.53 93.4363 1062.1 92.6974C1046.07 91.939 1037.07 99.9871 1024.29 103.477C1001.45 110.314 988.223 75.7686 964.339 85.1506C949.711 91.3375 942.699 107.569 927.15 109.61C912.983 111.651 903.325 98.9522 889.619 97.6927C880.643 96.9074 872.087 102.378 867.037 109.02C867.037 108.879 1118.73 132.127 1119.71 130.985Z" fill="url(#paint1_linear_5805_29931)"/>
<path d="M536.601 164.397C526.983 158.726 521.173 145.176 513.298 137.242C501.275 124.96 482.941 117.62 465.028 116.717C445.211 115.788 433.93 125.769 418.02 130.033C389.627 138.517 373.337 95.6131 343.521 107.254C325.327 114.96 316.631 135.089 297.295 137.644C279.702 140.13 267.7 124.409 250.668 122.838C239.507 121.862 228.887 128.661 222.616 136.927C222.716 136.936 535.299 165.813 536.601 164.397Z" fill="url(#paint2_linear_5805_29931)"/>
<path d="M422.007 39.4939C417.562 38.2766 412.987 38.0621 408.623 38.8663C402.952 40.0004 398.003 43.0692 392.593 44.8298C380.57 48.7289 369.189 40.7697 361.635 30.6296C342.86 5.60089 329.836 -20.7963 295.071 -12.0039C280.363 -8.27934 266.818 -0.568774 251.429 0.0974603C215.362 1.6514 179.155 -35.549 145.372 -24.8594C119.744 -16.7569 108.784 16.0954 82.4745 22.2263C65.7433 26.1159 47.8298 17.9274 31.1788 10.8555C12.6242 2.95301 -1.48205 0.913842 -19.9765 4.99136C-31.0772 7.44154 -42.4985 17.109 -54.04 21.9155L468.254 67.6103C465.729 67.5505 440.061 48.0369 433.088 44.0859C429.577 42.0687 425.848 40.5237 422.007 39.4939Z" fill="url(#paint3_linear_5805_29931)"/>
<path d="M1377.47 94.6484C1373.02 93.4375 1368.45 93.2299 1364.08 94.041C1358.41 95.1549 1353.46 98.2237 1348.05 100.004C1336.03 103.883 1324.65 95.9444 1317.1 85.7842C1298.32 60.7555 1285.3 34.3582 1250.53 43.1506C1235.82 46.8752 1222.28 54.5858 1206.89 55.252C1170.82 56.8059 1134.62 19.6055 1100.83 30.2951C1075.21 38.3976 1064.26 71.3724 1037.94 77.3808C1021.2 81.2704 1003.29 73.0819 986.66 66.0118C968.106 58.1294 953.979 56.0683 935.485 60.1459C924.384 62.596 912.963 72.2635 901.542 77.0806L1423.76 122.768C1421.23 122.708 1395.56 103.195 1388.59 99.244C1385.07 97.2222 1381.32 95.6759 1377.47 94.6484Z" fill="url(#paint4_linear_5805_29931)"/>
<path d="M1552.54 414.024C1548.1 412.813 1543.53 412.605 1539.17 413.418C1533.5 414.552 1528.55 417.601 1523.14 419.382C1511.12 423.261 1499.74 415.322 1492.16 405.16C1473.41 380.133 1460.36 353.734 1425.62 362.528C1410.91 366.252 1397.37 373.963 1381.96 374.627C1345.89 376.201 1309.7 338.983 1275.92 349.672C1250.29 357.775 1239.33 390.748 1213.02 396.758C1196.27 400.646 1178.38 392.459 1161.73 385.387C1143.17 377.505 1129.05 375.444 1110.57 379.523C1099.47 381.973 1088.05 391.641 1076.51 396.467L1598.78 442.16C1596.28 442.082 1570.61 422.569 1563.64 418.618C1560.11 416.608 1556.38 415.063 1552.54 414.024Z" fill="url(#paint5_linear_5805_29931)"/>
<path d="M685.377 123.051C680.936 121.84 676.368 121.632 672.012 122.445C666.341 123.579 661.392 126.628 655.982 128.409C643.96 132.288 632.579 124.349 625.004 114.187C606.249 89.1597 593.205 62.7608 558.46 71.5549C543.753 75.2795 530.208 82.99 514.799 83.6544C478.732 85.2285 442.544 48.0099 408.761 58.6995C383.133 66.8019 372.173 99.775 345.864 105.785C329.113 109.673 311.219 101.486 294.568 94.4144C276.014 86.532 261.887 84.4709 243.413 88.5502C232.312 91.0004 220.891 100.668 209.349 105.494L731.623 151.187C729.118 151.109 703.451 131.596 696.478 127.645C692.955 125.635 689.222 124.09 685.377 123.051Z" fill="url(#paint6_linear_5805_29931)"/>
<path d="M385.9 154.996C387.597 154.829 389.343 155.05 391.01 155.644C393.065 156.647 395.072 157.764 397.021 158.988C401.609 161.261 405.938 158.983 408.823 155.633C415.976 147.343 420.845 138.149 434.19 143.765C439.781 146.266 444.95 150.019 450.821 151.257C464.567 154.251 478.353 142.496 491.217 148.754C500.975 153.633 505.243 166.806 515.261 170.882C521.633 173.452 528.446 171.553 534.798 169.975C541.037 168.069 547.933 168.487 554.294 171.158C558.522 172.816 562.87 177.282 567.218 179.876L368.247 162.468C369.209 162.552 378.987 156.887 381.652 155.832C383.008 155.359 384.437 155.078 385.9 154.996Z" fill="url(#paint7_linear_5805_29931)"/>
<path d="M1132.41 326.269C1135.01 326.015 1137.68 326.366 1140.23 327.295C1143.43 328.83 1146.56 330.535 1149.6 332.402C1156.62 335.894 1163.27 332.39 1167.64 327.278C1178.6 314.572 1186.19 300.504 1206.47 309.181C1215.05 312.85 1222.96 318.674 1231.94 320.708C1253 325.307 1274.02 307.282 1293.81 316.964C1308.76 324.309 1315.15 344.612 1330.52 350.867C1340.28 354.84 1350.72 351.889 1360.44 349.459C1371.26 346.763 1379.51 347.002 1390.29 351.266C1396.76 353.845 1403.44 360.648 1410.11 364.613L1105.32 337.947C1106.78 338.075 1121.75 329.322 1125.82 327.806C1127.92 326.998 1130.13 326.481 1132.41 326.269Z" fill="url(#paint8_linear_5805_29931)"/>
<path d="M265.254 35.2965C267.851 35.0425 270.523 35.3933 273.068 36.3225C276.27 37.8576 279.4 39.5625 282.446 41.4295C289.459 44.9211 296.111 41.4177 300.479 36.3055C311.44 23.5991 319.034 9.53146 339.312 18.2087C347.888 21.8772 355.803 27.7017 364.779 29.7349C385.839 34.3345 406.858 16.3093 426.655 25.991C441.603 33.3364 447.994 53.639 463.363 59.8942C473.121 63.8674 483.561 60.9166 493.279 58.4864C504.099 55.7903 512.354 56.0296 523.134 60.2934C529.606 62.8722 536.279 69.6749 542.951 73.6398L238.163 46.9743C239.626 47.1022 254.594 38.3488 258.661 36.833C260.757 36.025 262.974 35.5085 265.254 35.2965Z" fill="url(#paint9_linear_5805_29931)"/>
<path d="M1286.36 692.28C1236.57 682.913 1082.62 659.965 1034.39 641.717V641.617L1032.39 640.959C925.887 600.386 823.997 538.038 729.581 453.26C723.57 445.066 711.928 442.578 699.124 442.384C686.3 440.336 674.559 440.778 668.648 447.929C574.312 516.153 472.281 560.701 365.843 582.644L363.839 582.951V583.052C315.609 592.92 161.662 588.871 111.869 589.526V761.238L1286.32 863.989L1286.36 692.28Z" fill="url(#paint10_linear_5805_29931)"/>
<path d="M624.064 490.901C641.617 468.447 658.308 473.509 648.51 505.115C679.267 504.948 643.561 488.863 703.092 479.46C709.283 465.914 737.015 504.204 755.469 515.398C767.231 519.547 736.254 493.189 753.165 495.715C774.264 499.574 783.842 525.689 784.303 500.573C779.414 495.731 774.839 491.111 770.578 486.713C756.765 475.482 743.106 463.808 729.601 451.691C723.59 443.518 711.948 441.01 699.144 440.836C686.32 438.768 674.579 439.23 668.668 446.36C655.122 456.164 641.417 465.477 627.551 474.3C623.824 477.536 619.917 480.898 615.749 484.417C628.513 474.666 610.199 501.34 624.064 490.901Z" fill="#FDFDFD"/>
<path d="M1450.55 950.488V651.238C1445.78 649.804 1440.97 648.643 1436.12 647.762C1409.17 643.151 1382.02 648.503 1361.12 658.147C1342.38 666.772 1330.26 685.414 1311.03 692.124C1291.79 698.833 1268.23 688.802 1249.05 682.334C1222.93 673.721 1195.9 669.674 1169.2 670.377C1139.89 671.113 1117.26 677.305 1087.05 666.43C1050.56 653.175 1027.36 620.332 987.923 617.909C963.678 616.432 943.841 627.959 919.796 628.049C896.593 628.032 874.752 617.547 852.47 610.848C821.192 601.43 786.708 600.285 756.552 605.958C722.809 612.304 710.045 629.542 682.654 640.308C635.125 658.992 586.134 613.207 537.262 618.129C522.856 619.585 508.569 622.783 493.922 621.039C464.847 617.549 454.709 588.547 430.083 575.947C410.446 565.897 384.658 566.257 362.477 569.066C340.295 571.875 318.054 576.591 294.79 573.449C265.516 569.459 240.269 553.705 211.154 548.723C184.204 544.111 157.054 549.464 136.155 559.107C117.4 567.73 105.297 586.374 86.0611 593.084C66.8253 599.793 43.2814 589.764 24.1057 583.296C-0.846395 575.019 -26.6514 570.992 -52.1967 571.388V819.135L1450.55 950.488Z" fill="url(#paint11_linear_5805_29931)"/>
<path d="M1450.55 950.488V750.257C1279.97 644.325 1323.51 793.482 1285.86 739.512C1261.25 708.257 1227.35 682.891 1185.67 682.445C1150.27 681.963 1120.89 714.674 1086.49 702.506C1066.77 695.529 1051.38 680.477 1035.49 667.132C1019.6 653.787 1000.71 641.105 980.108 641.034C944.983 640.919 920.958 677.036 885.772 675.87C866.476 675.248 848.623 663.241 829.327 660.989C798.009 657.323 779.534 678.369 759.417 696.915C737.556 717.141 713.531 720.574 682.734 713.432C657.587 707.609 632.22 697.641 607.213 700.022C598.557 700.855 590.181 703.161 581.445 703.222C560.065 703.364 547.381 682.732 528.947 673.954C506.665 663.371 483.823 660.306 464.827 675.308C451.843 685.563 442.165 713.174 427.718 685.968C408.302 653.558 381.151 626.468 347.108 623.59C318.214 621.163 293.568 652.033 265.736 638.006C249.706 629.982 237.544 614.166 224.86 600.035C212.176 585.904 197.028 572.241 180.217 571.032C151.563 568.968 131.185 603.492 102.512 600.46C86.7625 598.76 72.4558 585.755 56.7465 582.529C26.0493 576.04 10.1397 603.77 -8.95595 622.688C-29.3139 642.864 -52.2167 626.148 -52.2167 626.148V819.174L1450.55 950.488Z" fill="url(#paint12_linear_5805_29931)"/>
<path d="M1450.53 739.508L-52.2767 608.03V879.385L1450.53 1010.86V739.508Z" fill="url(#paint13_linear_5805_29931)"/>
<g opacity="0.4">
<path d="M1450.55 734.76V737.457C1386.89 734.061 1189.84 721.008 1128.1 721.644L1125.58 721.625C989.325 723.349 858.842 735.219 738.117 758.045C730.563 760.725 715.535 760.095 699.144 758.198C682.734 757.185 667.706 755.226 660.152 751.224C539.427 707.273 408.963 672.574 272.689 647.006L270.165 646.584C208.429 635.145 11.4621 613.687 -52.2567 605.938V603.282L1450.55 734.76Z" fill="url(#paint14_linear_5805_29931)"/>
<path d="M603.085 725.864C625.527 738.273 646.907 738.594 634.363 723.348C673.717 728.019 628.032 729.677 704.194 742.72C712.209 749.459 747.595 737.018 771.219 734.899C786.267 734.867 746.633 741.704 768.253 743.132C795.284 744.672 807.506 734.672 808.107 745.693C801.856 747.079 795.998 748.411 790.535 749.691C772.875 752.506 755.402 755.546 738.117 758.81C730.563 761.49 715.535 760.86 699.144 758.963C682.734 757.95 667.706 755.991 660.152 751.989C642.786 745.68 625.253 739.564 607.554 733.642C602.765 731.653 597.755 729.604 592.425 727.448C608.756 733.646 585.392 719.225 603.085 725.864Z" fill="#FDFDFD"/>
<path d="M1450.55 734.76V764.566C1445.62 764.477 1441.25 764.356 1436.12 764.069C1410.99 762.508 1385.86 758.374 1361.12 751.731C1342.38 746.59 1330.26 738.807 1311.03 734.267C1291.79 729.726 1268.23 730.381 1249.05 730.334C1222.49 730.177 1195.83 728.409 1169.2 725.038C1139.89 721.347 1117.26 716.59 1087.05 716.744C1050.56 716.953 1027.36 725.469 987.923 721.657C963.697 719.316 943.84 713.07 919.796 710.242C896.592 707.528 874.752 708.535 852.47 708.216C820.516 707.581 788.441 704.371 756.551 698.617C722.808 692.505 710.045 685.129 682.653 678.245C635.125 666.298 586.133 676.16 537.262 668.745C522.855 666.559 508.569 663.799 493.921 662.679C464.847 660.457 454.708 669.15 430.082 670.558C410.446 671.677 384.658 668.596 362.476 664.965C340.295 661.334 318.053 657.194 294.79 655.541C265.515 653.463 240.268 655.863 211.154 654.141C186.023 652.591 160.893 648.457 136.154 641.803C117.399 636.681 105.297 628.9 86.0609 624.359C66.825 619.818 43.2812 620.455 24.1054 620.428C-1.27255 620.292 -26.7502 618.654 -52.1969 615.523V603.287L1450.55 734.76Z" fill="url(#paint15_linear_5805_29931)"/>
<path d="M1271.33 719.081C1243.57 725.129 1214.61 726.41 1185.61 722.872C1150.21 718.889 1120.83 704.284 1086.43 704.413C1066.71 704.479 1051.32 707.802 1035.43 710.477C1019.54 713.153 1000.65 715.263 980.048 712.877C944.923 708.798 920.898 693.614 885.712 689.932C866.416 687.882 848.563 689.882 829.267 688.395C811.797 687.14 794.409 682.896 777.851 675.847L1271.33 719.081Z" fill="url(#paint16_linear_5805_29931)"/>
<path d="M1427.22 732.72C1356.97 737.562 1330.24 730.273 1317.02 723.078L1427.22 732.72Z" fill="url(#paint17_linear_5805_29931)"/>
<path d="M396.099 642.508C380.112 645.422 363.621 646.118 347.068 644.578C330.036 643.088 314.447 637.699 298.838 633.999L396.099 642.508Z" fill="url(#paint18_linear_5805_29931)"/>
<path d="M259.765 630.58C246.621 631.966 235.881 635.354 224.82 638.25C212.136 641.588 196.988 644.469 180.177 642.898C151.523 640.25 131.145 626.09 102.472 623.782C86.7224 622.525 72.4158 625.178 56.7065 624.528C31.4794 623.388 16.2309 615.533 1.0025 607.942L259.765 630.58Z" fill="url(#paint19_linear_5805_29931)"/>
</g>
<path d="M999.184 336.953C1046.72 341.112 1085.26 305.774 1085.26 258.024C1085.26 210.273 1046.72 168.192 999.184 164.033C951.643 159.873 913.103 195.211 913.103 242.962C913.103 290.712 951.643 332.794 999.184 336.953Z" fill="#FDFDFD"/>
</g>
</g>
<path d="M-375.096 570L2557.88 835.874L2504.97 1419.48L-428 1153.61L-375.096 570Z" fill="url(#paint20_linear_5805_29931)"/>
<g clip-path="url(#clip2_5805_29931)">
<path d="M-75.4394 902.921C-69.0827 892.685 -57.7572 888.209 -50.142 892.925C-48.4593 894.035 -47.0365 895.496 -45.9713 897.207C-44.9061 898.918 -44.2235 900.838 -43.9704 902.837C-38.761 895.19 -31.4512 890.928 -24.5856 892.537C-15.3327 894.71 -10.0401 906.841 -11.7704 920.711C-7.29986 918.586 -2.29833 917.836 2.59939 918.557C0.554501 916.458 -0.398543 914.137 0.230652 912.084C1.33175 908.543 6.85572 907.008 13.2495 908.182C10.27 902.19 10.2885 895.986 13.8787 892.296C18.1442 887.923 26.1017 888.487 33.1432 893.156C33.1432 892.231 33.1431 891.372 33.2449 890.465C34.3275 878.445 42.4423 869.383 51.3713 870.187C53.3672 870.424 55.2886 871.088 57.005 872.133C58.7213 873.178 60.1924 874.58 61.3182 876.244C62.5396 867.071 67.166 859.988 74.0224 858.352C83.2753 856.132 93.4534 864.621 98.0799 877.77C104.908 869.383 115.022 866.295 120.731 870.89C126.44 875.486 125.579 886.11 118.76 894.571C118.279 895.172 117.77 895.736 117.261 896.282C120.508 896.036 123.748 896.83 126.514 898.547C128.276 899.672 129.778 901.16 130.918 902.911C133.37 895.246 138.857 890.04 144.742 890.567C151.034 891.14 155.716 898.094 156.29 906.906C156.993 906.444 157.715 905.981 158.473 905.593C169.096 899.897 181.143 901.663 185.381 909.55C186.284 911.345 186.789 913.314 186.861 915.321C186.933 917.329 186.57 919.328 185.797 921.183C194.125 917.16 202.6 917.114 207.745 921.932C214.703 928.404 213.204 941.581 204.775 952.732C215.545 953.805 223.688 960.555 222.994 967.841C222.3 975.128 212.954 980.269 202.119 979.233C201.36 979.169 200.611 979.058 199.871 978.928C201.91 981.491 203.08 984.635 203.211 987.907C203.239 989.996 202.819 992.068 201.981 993.982C207.958 992.308 213.713 992.937 217.312 995.702C216.498 987.463 218.173 981.064 221.939 979.982C226.76 978.623 233.255 986.566 236.818 997.921C238.668 987.047 246.283 979.122 254.648 979.871C256.509 980.086 258.307 980.678 259.932 981.612C261.556 982.545 262.973 983.8 264.095 985.299C264.095 985.031 264.151 984.772 264.188 984.504C266.251 969.561 274.828 958.401 283.35 959.538C291.872 960.675 297.109 973.778 295.046 988.72C295.046 988.989 294.953 989.248 294.907 989.506C303.494 985.114 312.312 984.939 317.614 989.895C325.349 997.135 317.614 1095.9 317.614 1095.9H-81.9997L-75.4394 902.921Z" fill="url(#paint21_linear_5805_29931)"/>
<path d="M249.476 1020.45C248.606 1010.68 242.018 1003.28 234.754 1003.92C233.128 1004.11 231.563 1004.65 230.164 1005.5C228.765 1006.35 227.566 1007.49 226.649 1008.84C225.659 1001.37 221.911 995.59 216.332 994.25C208.781 992.4 200.509 999.326 196.688 1010.03C194.215 1006.86 190.852 1004.49 187.028 1003.23C189.286 1002.44 190.822 1001.11 191.108 999.4C191.608 996.423 188.157 993.288 183.086 991.799C187.444 988.526 189.702 984.014 188.444 980.019C186.954 975.276 180.958 972.779 174.139 973.546C174.462 972.899 174.768 972.243 175.064 971.549C178.672 962.432 176.109 952.862 169.327 950.18C167.789 949.622 166.148 949.4 164.516 949.531C162.885 949.662 161.3 950.142 159.871 950.938C162.341 943.828 161.582 936.985 157.197 933.277C151.275 928.275 140.782 930.725 132.556 938.585C130.706 929.985 124.451 924.04 118.621 925.297C112.792 926.555 109.516 934.544 111.367 943.227C111.497 943.837 111.654 944.438 111.83 945.02C109.557 943.639 106.901 943.023 104.252 943.264C102.558 943.437 100.92 943.969 99.4493 944.826C100.476 938.354 98.3945 932.556 93.8976 930.79C89.1138 928.941 83.1642 932.242 79.5186 938.437C79.1793 937.82 78.8092 937.238 78.4083 936.689C72.7825 928.654 63.3724 925.528 57.395 929.708C56.0804 930.686 54.9923 931.935 54.2051 933.371C53.4178 934.808 52.9499 936.397 52.8333 938.03C48.2068 932.047 42.1092 928.922 36.6037 930.531C29.2014 932.722 25.4355 942.82 27.4712 954.017C19.2546 950.855 10.8622 952.769 8.68782 958.326C6.51339 963.884 11.4637 971.031 19.6802 974.249C20.2632 974.471 20.8461 974.665 21.429 974.85C19.0286 975.99 17.0546 977.866 15.794 980.204C14.9987 981.732 14.5411 983.413 14.4523 985.133C10.7512 981.73 6.30984 980.084 2.68271 980.777C6.29133 975.081 7.4294 969.82 5.07917 967.675C2.07198 964.901 -5.55237 968.313 -12.307 975.257C-9.64214 966.685 -12.307 958.132 -18.6545 955.617C-20.0853 955.09 -21.6089 954.861 -23.1317 954.943C-24.6544 955.026 -26.1442 955.419 -27.5095 956.098L-27.2781 955.488C-23.3086 943.874 -25.4276 932.621 -32.0712 930.355C-38.7147 928.09 -47.3014 935.626 -51.2431 947.221C-51.3171 947.434 -51.3634 947.637 -51.4374 947.85C-56.0639 941.507 -62.4114 938.15 -68.0926 939.815C-76.3647 942.246 -80.0659 954.424 -76.3554 967.028V1050.37H249.476V1020.45Z" fill="url(#paint22_linear_5805_29931)"/>
</g>
<g clip-path="url(#clip3_5805_29931)">
<path d="M1619 893.341C1610.27 879.363 1594.73 873.252 1584.28 879.692C1581.98 881.208 1580.02 883.202 1578.56 885.539C1577.1 887.875 1576.16 890.498 1575.82 893.228C1568.67 882.785 1558.64 876.964 1549.22 879.161C1536.52 882.129 1529.26 898.695 1531.63 917.635C1525.5 914.733 1518.63 913.709 1511.91 914.693C1514.72 911.827 1516.03 908.658 1515.16 905.854C1513.65 901.018 1506.07 898.922 1497.3 900.526C1501.39 892.344 1501.36 883.871 1496.43 878.833C1490.58 872.861 1479.66 873.631 1470 880.007C1470 878.745 1470 877.57 1469.86 876.333C1468.37 859.918 1457.24 847.544 1444.99 848.643C1442.25 848.966 1439.61 849.872 1437.26 851.299C1434.9 852.726 1432.88 854.641 1431.34 856.913C1429.66 844.387 1423.31 834.715 1413.9 832.48C1401.21 829.45 1387.24 841.041 1380.89 858.997C1371.52 847.544 1357.65 843.327 1349.81 849.602C1341.98 855.878 1343.16 870.386 1352.52 881.939C1353.18 882.76 1353.87 883.53 1354.57 884.275C1350.12 883.94 1345.67 885.024 1341.88 887.369C1339.46 888.905 1337.4 890.937 1335.83 893.329C1332.47 882.861 1324.94 875.752 1316.86 876.472C1308.23 877.255 1301.8 886.75 1301.02 898.783C1300.05 898.152 1299.06 897.521 1298.02 896.99C1283.44 889.212 1266.91 891.624 1261.1 902.395C1259.86 904.845 1259.17 907.533 1259.07 910.275C1258.97 913.016 1259.47 915.747 1260.53 918.279C1249.1 912.786 1237.47 912.723 1230.41 919.302C1220.86 928.141 1222.92 946.134 1234.49 961.362C1219.71 962.826 1208.53 972.044 1209.49 981.994C1210.44 991.944 1223.26 998.964 1238.13 997.55C1239.17 997.461 1240.2 997.31 1241.21 997.133C1238.42 1000.63 1236.81 1004.93 1236.63 1009.39C1236.59 1012.25 1237.17 1015.08 1238.32 1017.69C1230.12 1015.4 1222.22 1016.26 1217.28 1020.04C1218.4 1008.79 1216.1 1000.05 1210.93 998.573C1204.32 996.717 1195.4 1007.56 1190.52 1023.07C1187.98 1008.22 1177.53 997.398 1166.05 998.421C1163.49 998.714 1161.03 999.523 1158.8 1000.8C1156.57 1002.07 1154.63 1003.79 1153.09 1005.83C1153.09 1005.47 1153.01 1005.11 1152.96 1004.75C1150.13 984.342 1138.36 969.102 1126.66 970.655C1114.97 972.208 1107.78 990.1 1110.61 1010.5C1110.61 1010.87 1110.74 1011.22 1110.81 1011.58C1099.02 1005.58 1086.92 1005.34 1079.65 1012.11C1069.03 1022 1079.65 1156.86 1079.65 1156.86L1628 1156.86L1619 893.341Z" fill="url(#paint23_linear_5805_29931)"/>
<path d="M1173.15 1053.83C1174.34 1040.49 1183.38 1030.39 1193.35 1031.26C1195.58 1031.52 1197.73 1032.25 1199.65 1033.41C1201.57 1034.57 1203.21 1036.13 1204.47 1037.98C1205.83 1027.78 1210.97 1019.89 1218.63 1018.06C1228.99 1015.53 1240.34 1024.99 1245.58 1039.61C1248.98 1035.27 1253.59 1032.04 1258.84 1030.32C1255.74 1029.24 1253.63 1027.42 1253.24 1025.09C1252.55 1021.02 1257.29 1016.74 1264.25 1014.71C1258.27 1010.24 1255.17 1004.08 1256.9 998.623C1258.94 992.145 1267.17 988.736 1276.52 989.784C1276.08 988.9 1275.66 988.004 1275.26 987.057C1270.3 974.607 1273.82 961.538 1283.13 957.876C1285.24 957.114 1287.49 956.812 1289.73 956.99C1291.97 957.169 1294.14 957.824 1296.1 958.912C1292.71 949.202 1293.75 939.858 1299.77 934.794C1307.9 927.963 1322.3 931.309 1333.58 942.042C1336.12 930.299 1344.71 922.18 1352.71 923.898C1360.71 925.615 1365.2 936.524 1362.66 948.381C1362.48 949.214 1362.27 950.035 1362.03 950.83C1365.14 948.944 1368.79 948.103 1372.42 948.431C1374.75 948.667 1377 949.395 1379.01 950.565C1377.6 941.727 1380.46 933.81 1386.63 931.398C1393.2 928.873 1401.36 933.38 1406.36 941.84C1406.83 940.998 1407.34 940.203 1407.89 939.454C1415.61 928.481 1428.52 924.213 1436.72 929.921C1438.53 931.255 1440.02 932.962 1441.1 934.923C1442.18 936.884 1442.82 939.054 1442.98 941.285C1449.33 933.115 1457.7 928.847 1465.25 931.044C1475.41 934.037 1480.58 947.825 1477.78 963.116C1489.06 958.798 1500.57 961.412 1503.56 969C1506.54 976.589 1499.75 986.349 1488.47 990.744C1487.67 991.047 1486.87 991.312 1486.07 991.564C1489.37 993.121 1492.08 995.682 1493.81 998.875C1494.9 1000.96 1495.53 1003.26 1495.65 1005.61C1500.73 1000.96 1506.82 998.711 1511.8 999.658C1506.85 991.88 1505.28 984.695 1508.51 981.766C1512.64 977.978 1523.1 982.637 1532.37 992.12C1528.71 980.415 1532.37 968.735 1541.08 965.301C1543.04 964.581 1545.13 964.268 1547.22 964.38C1549.31 964.493 1551.35 965.03 1553.23 965.957L1552.91 965.124C1547.46 949.265 1550.37 933.898 1559.49 930.804C1568.6 927.711 1580.39 938.002 1585.8 953.836C1585.9 954.126 1585.96 954.404 1586.06 954.694C1592.41 946.032 1601.12 941.449 1608.92 943.722C1620.27 947.042 1625.35 963.672 1620.25 980.882V1094.69L1173.15 1094.69V1053.83Z" fill="url(#paint24_linear_5805_29931)"/>
</g>
</g>
<defs>
<linearGradient id="paint0_linear_5805_29931" x1="720" y1="0" x2="720" y2="1024" gradientUnits="userSpaceOnUse">
<stop stop-color="#EFFAFA"/>
<stop offset="1" stop-color="#A5E4E4"/>
</linearGradient>
<linearGradient id="paint1_linear_5805_29931" x1="993.373" y1="120.476" x2="996.443" y2="85.3833" gradientUnits="userSpaceOnUse">
<stop stop-color="#FDFDFD" stop-opacity="0.24"/>
<stop offset="0.04" stop-color="#FDFDFD" stop-opacity="0.28"/>
<stop offset="0.3" stop-color="#FDFDFD" stop-opacity="0.59"/>
<stop offset="0.52" stop-color="#FDFDFD" stop-opacity="0.81"/>
<stop offset="0.68" stop-color="#FDFDFD" stop-opacity="0.95"/>
<stop offset="0.77" stop-color="#FDFDFD"/>
</linearGradient>
<linearGradient id="paint2_linear_5805_29931" x1="379.629" y1="151.348" x2="383.445" y2="107.728" gradientUnits="userSpaceOnUse">
<stop stop-color="#FDFDFD" stop-opacity="0.24"/>
<stop offset="0.04" stop-color="#FDFDFD" stop-opacity="0.28"/>
<stop offset="0.3" stop-color="#FDFDFD" stop-opacity="0.59"/>
<stop offset="0.52" stop-color="#FDFDFD" stop-opacity="0.81"/>
<stop offset="0.68" stop-color="#FDFDFD" stop-opacity="0.95"/>
<stop offset="0.77" stop-color="#FDFDFD"/>
</linearGradient>
<linearGradient id="paint3_linear_5805_29931" x1="207.147" y1="44.7664" x2="213.006" y2="-22.2025" gradientUnits="userSpaceOnUse">
<stop stop-color="#FDFDFD" stop-opacity="0.24"/>
<stop offset="0.04" stop-color="#FDFDFD" stop-opacity="0.28"/>
<stop offset="0.3" stop-color="#FDFDFD" stop-opacity="0.59"/>
<stop offset="0.52" stop-color="#FDFDFD" stop-opacity="0.81"/>
<stop offset="0.68" stop-color="#FDFDFD" stop-opacity="0.95"/>
<stop offset="0.77" stop-color="#FDFDFD"/>
</linearGradient>
<linearGradient id="paint4_linear_5805_29931" x1="1162.61" y1="99.921" x2="1168.47" y2="32.952" gradientUnits="userSpaceOnUse">
<stop stop-color="#FDFDFD" stop-opacity="0.24"/>
<stop offset="0.04" stop-color="#FDFDFD" stop-opacity="0.28"/>
<stop offset="0.3" stop-color="#FDFDFD" stop-opacity="0.59"/>
<stop offset="0.52" stop-color="#FDFDFD" stop-opacity="0.81"/>
<stop offset="0.68" stop-color="#FDFDFD" stop-opacity="0.95"/>
<stop offset="0.77" stop-color="#FDFDFD"/>
</linearGradient>
<linearGradient id="paint5_linear_5805_29931" x1="1337.69" y1="419.318" x2="1343.56" y2="352.329" gradientUnits="userSpaceOnUse">
<stop stop-color="#FDFDFD" stop-opacity="0.24"/>
<stop offset="0.04" stop-color="#FDFDFD" stop-opacity="0.28"/>
<stop offset="0.3" stop-color="#FDFDFD" stop-opacity="0.59"/>
<stop offset="0.52" stop-color="#FDFDFD" stop-opacity="0.81"/>
<stop offset="0.68" stop-color="#FDFDFD" stop-opacity="0.95"/>
<stop offset="0.77" stop-color="#FDFDFD"/>
</linearGradient>
<linearGradient id="paint6_linear_5805_29931" x1="470.536" y1="128.345" x2="476.397" y2="61.3565" gradientUnits="userSpaceOnUse">
<stop stop-color="#FDFDFD" stop-opacity="0.24"/>
<stop offset="0.04" stop-color="#FDFDFD" stop-opacity="0.28"/>
<stop offset="0.3" stop-color="#FDFDFD" stop-opacity="0.59"/>
<stop offset="0.52" stop-color="#FDFDFD" stop-opacity="0.81"/>
<stop offset="0.68" stop-color="#FDFDFD" stop-opacity="0.95"/>
<stop offset="0.77" stop-color="#FDFDFD"/>
</linearGradient>
<linearGradient id="paint7_linear_5805_29931" x1="467.753" y1="171.335" x2="469.986" y2="145.809" gradientUnits="userSpaceOnUse">
<stop stop-color="#FDFDFD" stop-opacity="0.24"/>
<stop offset="0.04" stop-color="#FDFDFD" stop-opacity="0.28"/>
<stop offset="0.3" stop-color="#FDFDFD" stop-opacity="0.59"/>
<stop offset="0.52" stop-color="#FDFDFD" stop-opacity="0.81"/>
<stop offset="0.68" stop-color="#FDFDFD" stop-opacity="0.95"/>
<stop offset="0.77" stop-color="#FDFDFD"/>
</linearGradient>
<linearGradient id="paint8_linear_5805_29931" x1="1257.67" y1="351.275" x2="1261.08" y2="312.209" gradientUnits="userSpaceOnUse">
<stop stop-color="#FDFDFD" stop-opacity="0.24"/>
<stop offset="0.04" stop-color="#FDFDFD" stop-opacity="0.28"/>
<stop offset="0.3" stop-color="#FDFDFD" stop-opacity="0.59"/>
<stop offset="0.52" stop-color="#FDFDFD" stop-opacity="0.81"/>
<stop offset="0.68" stop-color="#FDFDFD" stop-opacity="0.95"/>
<stop offset="0.77" stop-color="#FDFDFD"/>
</linearGradient>
<linearGradient id="paint9_linear_5805_29931" x1="390.507" y1="60.3026" x2="393.925" y2="21.2358" gradientUnits="userSpaceOnUse">
<stop stop-color="#FDFDFD" stop-opacity="0.24"/>
<stop offset="0.04" stop-color="#FDFDFD" stop-opacity="0.28"/>
<stop offset="0.3" stop-color="#FDFDFD" stop-opacity="0.59"/>
<stop offset="0.52" stop-color="#FDFDFD" stop-opacity="0.81"/>
<stop offset="0.68" stop-color="#FDFDFD" stop-opacity="0.95"/>
<stop offset="0.77" stop-color="#FDFDFD"/>
</linearGradient>
<linearGradient id="paint10_linear_5805_29931" x1="699.144" y1="812.618" x2="731.31" y2="444.958" gradientUnits="userSpaceOnUse">
<stop offset="0.34" stop-color="white"/>
<stop offset="1" stop-color="#7BDCED"/>
</linearGradient>
<linearGradient id="paint11_linear_5805_29931" x1="699.144" y1="928.341" x2="729.14" y2="585.487" gradientUnits="userSpaceOnUse">
<stop offset="0.17" stop-color="white"/>
<stop offset="1" stop-color="#6BCCDA"/>
</linearGradient>
<linearGradient id="paint12_linear_5805_29931" x1="699.144" y1="1132.62" x2="743.984" y2="620.094" gradientUnits="userSpaceOnUse">
<stop stop-color="#6BCCDA"/>
<stop offset="1" stop-color="#25ABB6"/>
</linearGradient>
<linearGradient id="paint13_linear_5805_29931" x1="699.124" y1="945.124" x2="722.684" y2="675.83" gradientUnits="userSpaceOnUse">
<stop stop-color="#7BDCED"/>
<stop offset="0.88" stop-color="white"/>
</linearGradient>
<linearGradient id="paint14_linear_5805_29931" x1="699.144" y1="596.83" x2="685.116" y2="757.172" gradientUnits="userSpaceOnUse">
<stop offset="0.34" stop-color="white"/>
<stop offset="1" stop-color="#7BDCED"/>
</linearGradient>
<linearGradient id="paint15_linear_5805_29931" x1="699.144" y1="581.977" x2="688.922" y2="698.818" gradientUnits="userSpaceOnUse">
<stop offset="0.17" stop-color="white"/>
<stop offset="1" stop-color="#6BCCDA"/>
</linearGradient>
<linearGradient id="paint16_linear_5805_29931" x1="1024.59" y1="540.835" x2="1009.31" y2="715.498" gradientUnits="userSpaceOnUse">
<stop stop-color="#6BCCDA"/>
<stop offset="1" stop-color="#25ABB6"/>
</linearGradient>
<linearGradient id="paint17_linear_5805_29931" x1="1372.12" y1="571.24" x2="1356.84" y2="745.903" gradientUnits="userSpaceOnUse">
<stop stop-color="#6BCCDA"/>
<stop offset="1" stop-color="#25ABB6"/>
</linearGradient>
<linearGradient id="paint18_linear_5805_29931" x1="347.469" y1="481.596" x2="332.188" y2="656.257" gradientUnits="userSpaceOnUse">
<stop stop-color="#6BCCDA"/>
<stop offset="1" stop-color="#25ABB6"/>
</linearGradient>
<linearGradient id="paint19_linear_5805_29931" x1="130.384" y1="462.602" x2="115.103" y2="637.265" gradientUnits="userSpaceOnUse">
<stop stop-color="#6BCCDA"/>
<stop offset="1" stop-color="#25ABB6"/>
</linearGradient>
<linearGradient id="paint20_linear_5805_29931" x1="1091.39" y1="702.937" x2="1038.49" y2="1286.54" gradientUnits="userSpaceOnUse">
<stop stop-color="#3EB5B5"/>
<stop offset="1" stop-color="#228E8E"/>
</linearGradient>
<linearGradient id="paint21_linear_5805_29931" x1="119.521" y1="1315.26" x2="119.521" y2="857.91" gradientUnits="userSpaceOnUse">
<stop stop-color="#6BCCDA"/>
<stop offset="1" stop-color="#20A1AC"/>
</linearGradient>
<linearGradient id="paint22_linear_5805_29931" x1="85.8351" y1="1165.85" x2="85.8351" y2="925.082" gradientUnits="userSpaceOnUse">
<stop offset="0.44" stop-color="#25ABB6"/>
<stop offset="0.945" stop-color="#6BCCDA"/>
</linearGradient>
<linearGradient id="paint23_linear_5805_29931" x1="1351.47" y1="1456.41" x2="1351.47" y2="831.877" gradientUnits="userSpaceOnUse">
<stop stop-color="#6BCCDA"/>
<stop offset="1" stop-color="#20A1AC"/>
</linearGradient>
<linearGradient id="paint24_linear_5805_29931" x1="1397.7" y1="1252.38" x2="1397.7" y2="923.604" gradientUnits="userSpaceOnUse">
<stop offset="0.44" stop-color="#25ABB6"/>
<stop offset="0.945" stop-color="#6BCCDA"/>
</linearGradient>
<clipPath id="clip0_5805_29931">
<rect width="1440" height="1024" fill="white"/>
</clipPath>
<clipPath id="clip1_5805_29931">
<rect width="1659.14" height="953.234" fill="white" transform="matrix(0.996195 0.0871557 0 1 -54 -74)"/>
</clipPath>
<clipPath id="clip2_5805_29931">
<rect width="403" height="238" fill="white" transform="translate(-81.9997 858)"/>
</clipPath>
<clipPath id="clip3_5805_29931">
<rect width="553" height="325" fill="white" transform="matrix(-1 -5.24746e-09 0 1 1628 832)"/>
</clipPath>
</defs>
</svg>
