<svg xmlns="http://www.w3.org/2000/svg" enable-background="new 0 0 4680 3120" viewBox="0 0 4680 3120"><path fill="#ffecd4" d="M777.931 1230.83c93.852-510.317 746.793-552.895 1258.174-405.502s1578.693-331.618 1774.018-231.63c195.325 99.988-302.289 504.59-241.831 637.133s-13.952 414.555-799.904 350.283S1787.111 2042.36 1233.69 1963.3c-553.422-79.06-492.964-530.169-455.759-732.47zM1208.771 2642.055c808.281-159.314 2539.482-165.472 2546.459 22.643 6.977 188.115-1382.782 229.975-1975.086 195.092s-947.121-143.674-571.373-217.735z"/><path fill="#7e892c" d="M3326.781 2430.297s-11.766 20.044-21.765 47.762a244.723 244.723 0 0 0-1.907 5.418c.023.023.023.023 0 .023-6.232 18.277-11.394 39.321-11.975 59.946-1.558 55.04 4.651 160.446 4.651 160.446h-279.036l3.883-68.969c1.535-103.871 62.783-161.236 62.783-161.236s0 63.573 17.045 52.714c.302-.186.604-.418.93-.651 4.279-3.209 10.325-10.557 17.719-19.95 9.371-11.906 20.881-27.09 33.647-41.065 7.488-8.208 15.393-16.022 23.556-22.509 12.603-10.045 25.787-16.952 38.856-17.37 0 0-23.369 37.74-25.858 55.295v.024c-.325 2.418-.279 4.441.279 5.929.279.791.767 1.256 1.395 1.418 9.184 2.419 53.83-57.969 135.797-57.225z"/><path fill="#954512" d="M3059.051 1230.83h63.364v1417.813h-63.364z"/><path fill="#f7841c" d="m3433.424 783.21-13.952 456.922-344.145 69.759V783.21c0-75.898-32.717-148.191-89.78-198.325-48.134-42.297-109.987-65.597-174.142-65.597h358.096c64.155 0 126.008 23.3 174.142 65.597 57.064 50.133 89.781 122.427 89.781 198.325z"/><path fill="#b74e13" d="M3075.328 783.21v526.681h-527.843V783.21c0-62.969 22.555-123.962 63.481-171.701 50.249-58.621 123.311-92.221 200.441-92.221 64.155 0 126.008 23.3 174.142 65.597 57.062 50.133 89.779 122.427 89.779 198.325z"/><path fill="#f7841c" d="M2547.485 1836.571V1309.89h527.843v526.681c0 62.969-22.555 123.962-63.481 171.7-50.25 58.621-123.311 92.221-200.441 92.221-64.155 0-126.008-23.3-174.142-65.597-57.062-50.132-89.779-122.426-89.779-198.324z"/><path fill="#954512" d="M3059.051 783.21v384.837l-495.289 125.566V783.21c0-61.527 22.439-117.8 59.574-161.12 45.413-52.971 112.824-86.524 188.07-86.524 31.299 0 61.249 5.813 88.826 16.417 27.578 10.58 52.784 25.973 74.573 45.134 51.645 45.389 84.246 111.939 84.246 186.093z"/><path fill="#5e290b" d="M3059.051 1168.047v125.566h-495.289z"/><path fill="#a9be3a" d="M3195.115 2703.9h103.088s47.281-127.117 82.936-155.02c0 0-82.161 29.454-111.615 110.064l-63.558-132.542 17.052 122.466s-62.783-25.578-65.108-25.578c-2.326-.001 37.98 17.827 37.205 80.61z"/><path fill="#a9be3a" d="M3188.409 2543.713c-1.784 1.31-3.633 2.995-5.565 5.041.016.016.016.016 0 .016-21.637 23.306-49.672 92.831-52.52 155.122h-121.882c-5.696-36.497-13.093-77.823-15.385-90.523 6.645 30.49 40.082 57.659 40.082 57.659 10.998-35.188 10.868-67.921 7.725-92.52-3.371-26.432-10.229-43.502-10.507-44.206 8.838 8.642 16.547 19.411 22.979 30.164 14.435 24.075 22.471 48.084 22.471 48.084 5.745-25.679 4.402-53.846 1.211-76.988-3.878-28.02-10.474-48.69-10.474-48.69 12.046 7.61 20.753 19.329 27.054 32.848 3.911 8.396 6.89 17.479 9.149 26.694v.017c.426 1.718.818 3.453 1.178 5.172 8.134 37.741 4.861 75.81 4.861 75.81 25.221-60.671 62.848-78.167 75.401-82.471 2.47-.853 3.976-1.18 4.222-1.229z"/><path fill="#5e290b" d="M2632.4 1295.311c-5.248-.094-9.538 1.802-9.582 4.237l-1.032 57.305c-.044 2.434 4.175 4.485 9.423 4.579 5.248.094 9.538-1.802 9.582-4.237l1.032-57.305c.045-2.434-4.174-4.484-9.423-4.579zM2971.648 1295.311c-5.248-.094-9.538 1.802-9.582 4.237l-1.032 57.305c-.044 2.434 4.175 4.485 9.423 4.579 5.248.094 9.538-1.802 9.582-4.237l1.032-57.305c.045-2.434-4.174-4.484-9.423-4.579z"/><path fill="#954512" d="M1339.49 959.554c-29.886 0-55.204-4.762-72.557-13.98a3.487 3.487 0 1 1 3.273-6.16c50.106 26.621 171.537 10.63 236.239-31.11 14.858-9.585 31.93-24.133 35.786-42.01-61.568 20.821-118.069 32.805-135.891 15.174-7.1-7.022-7.783-17.83-2.031-32.125 15.969-39.69 59.719-55.459 92.765-50.134 31.144 5.012 50.901 26.331 52.851 57.028v.011c22.495-7.867 47.322-17.416 74.241-28.589a3.489 3.489 0 0 1 2.675 6.443c-24.714 10.259-51.245 20.642-77.121 29.626-2.094 17.72-15.591 35.019-39.494 50.439-30.533 19.698-77.146 35.41-124.689 42.031-16.156 2.247-31.633 3.356-46.047 3.356zm144.63-154.383c-28.232 0-60.557 15.005-73.34 46.775-4.603 11.439-4.446 19.703.464 24.561 13.366 13.221 60.062 6.626 131.786-17.877a33.744 33.744 0 0 0-.069-1.952c-1.728-27.216-19.296-46.126-46.997-50.583a74.677 74.677 0 0 0-11.844-.924zM3635.302 868.173c-29.886 0-55.204-4.762-72.557-13.98a3.488 3.488 0 1 1 3.273-6.161c50.106 26.621 171.537 10.63 236.24-31.11 14.858-9.585 31.93-24.133 35.785-42.01-61.568 20.821-118.069 32.805-135.89 15.173-7.1-7.022-7.783-17.83-2.031-32.125 15.969-39.69 59.719-55.459 92.765-50.134 31.144 5.012 50.901 26.331 52.851 57.028v.011c22.495-7.867 47.322-17.416 74.241-28.589a3.489 3.489 0 0 1 2.675 6.443c-24.714 10.26-51.245 20.642-77.121 29.626-2.094 17.72-15.591 35.019-39.494 50.439-30.533 19.698-77.146 35.41-124.688 42.031-16.157 2.25-31.635 3.358-46.049 3.358zm144.631-154.383c-28.232 0-60.556 15.005-73.34 46.775-4.603 11.439-4.446 19.703.465 24.561 13.366 13.221 60.062 6.626 131.786-17.877a33.744 33.744 0 0 0-.069-1.952c-1.728-27.216-19.296-46.126-46.997-50.583a74.699 74.699 0 0 0-11.845-.924zM1958.891 443.328c-29.885 0-55.203-4.762-72.556-13.98a3.487 3.487 0 1 1 3.272-6.16c50.112 26.623 171.542 10.628 236.239-31.11 14.858-9.585 31.93-24.133 35.786-42.01-61.568 20.821-118.066 32.804-135.892 15.173-7.099-7.022-7.782-17.83-2.03-32.125 15.971-39.689 59.713-55.463 92.765-50.134 31.144 5.012 50.902 26.331 52.851 57.028v.011c22.495-7.867 47.324-17.416 74.242-28.589a3.483 3.483 0 0 1 4.56 1.884 3.49 3.49 0 0 1-1.885 4.559c-24.715 10.259-51.245 20.641-77.121 29.626-2.094 17.72-15.591 35.019-39.494 50.439-30.533 19.698-77.146 35.41-124.688 42.031-16.157 2.249-31.634 3.357-46.049 3.357zm144.631-154.383c-28.233 0-60.558 15.005-73.34 46.775-4.603 11.439-4.446 19.703.466 24.561 13.366 13.222 60.063 6.627 131.784-17.877a35.627 35.627 0 0 0-.068-1.952c-1.728-27.216-19.297-46.126-46.997-50.583a74.708 74.708 0 0 0-11.845-.924zM2307.867 693.379c-13.473.001-23.655-1.67-28.776-5.663-6.604-5.15-8.738-12.351-6.015-20.274.695-2.021 1.737-4.112 3.102-6.249-21.484-3.477-34.237-10.864-35.863-21.528-2.732-17.93 26.657-36.84 76.698-49.35a3.48 3.48 0 0 1 4.23 2.538 3.485 3.485 0 0 1-2.536 4.229c-51.509 12.878-73.17 30.556-71.496 41.532 1.061 6.96 11.988 13.391 33.821 16.276 22.318-24.881 83.899-53.053 158.906-53.053 31.246 0 45.92 4.159 46.177 13.087.332 11.571-27.059 22.304-50.094 29.271-32.318 9.775-71.712 16.581-108.079 18.676-16.843.97-31.664.723-44.101-.645-1.941 2.584-3.347 5.096-4.169 7.486-1.753 5.1-.54 9.19 3.71 12.505 22.704 17.708 184.657-22.131 245.145-38.977a3.49 3.49 0 0 1 4.296 2.424 3.49 3.49 0 0 1-2.425 4.295c-18.694 5.206-158.117 43.417-222.531 43.42zm-18.23-37.587c10.564.845 23.173.962 37.906.113 84.885-4.889 151.858-31.762 151.599-40.781-.002-.063-1.857-6.312-39.203-6.312-68.777 0-127.044 24.714-150.302 46.98z"/><path fill="#ffdbbb" d="M1442.182 537.781c24.375-5.857 28.88 9.73 31.653 33.514s13.632 41.575 22.411 27.712c8.78-13.863 18.946-73.549 47.364-61.958 28.418 11.591-6.007 52.254 3.466 65.655 9.473 13.401 60.225-4.775 62.844 12.168 2.619 16.943-29.728 10.012-17.559 17.867 12.168 7.856 39.739-7.393 35.119 8.78-4.621 16.173-225.498 11.09-249.989 0-24.491-11.09 22.642-12.168 35.427-13.555 12.783-1.386-26.186-76.86 29.264-90.183z"/><path fill="#7e892c" d="M2934.066 509.987c0 3.186-.326 6.302-.976 9.301h-87.571c-.651-3-.976-6.116-.976-9.301 0-24.718 20.044-44.762 44.762-44.762 24.716 0 44.761 20.044 44.761 44.762z"/><path fill="#a9be3a" d="M2858.203 515.644c0 1.248-.127 2.469-.382 3.644h-34.308a17.178 17.178 0 0 1-.383-3.644c0-9.684 7.853-17.537 17.537-17.537 9.683.001 17.536 7.853 17.536 17.537z"/><path fill="#a9be3a" d="M2832.698 503.156c-.461 0-.895-.275-1.079-.728l-3.924-9.737a1.163 1.163 0 1 1 2.157-.87l3.924 9.737a1.161 1.161 0 0 1-1.078 1.598zM2847.159 504.139c.461 0 .895-.275 1.079-.728l3.924-9.737a1.163 1.163 0 1 0-2.157-.87l-3.924 9.737a1.161 1.161 0 0 0 1.078 1.598zM2836.739 455.592a189.84 189.84 0 0 1 6.123 3.563c.827.506 1.94 1.425 3.339 2.759 1.346 1.271 2.498 2.201 3.457 2.786 1.851 1.131 2.231 2.59 1.14 4.374-.626 1.025-1.529 1.706-2.709 2.046-1.18.34-2.326.172-3.437-.507-1.067-.652-2.215-1.564-3.444-2.734-1.251-1.183-2.411-2.1-3.478-2.752a88.169 88.169 0 0 0-14.929-7.286 8.472 8.472 0 0 1-1.354-.648c-1.808-1.105-2.259-2.397-1.354-3.878.825-1.35 2.302-2.152 4.432-2.406 9.771-1.207 22.094-4.683 36.971-10.426-2.994-1.561-5.145-2.74-6.452-3.539-1.677-1.025-3.857-2.523-6.542-4.492-2.685-1.97-4.079-3.346-4.185-4.128a3.242 3.242 0 0 1 .461-2.185c.652-1.067 1.59-1.794 2.815-2.182 1.224-.388 2.36-.264 3.405.375 1.219.745 2.711 1.852 4.477 3.32 2.018 1.592 3.55 2.708 4.595 3.347 1.48.905 3.768 2.154 6.863 3.746 3.587 1.863 5.914 3.12 6.981 3.773 1.633.998 2.083 2.097 1.352 3.294-1.131 1.851-3.511 3.224-7.137 4.117-3.908.963-9.002 2.47-15.283 4.524-8.422 2.867-13.792 4.58-16.107 5.139zM2885.108 407.381c3.049.638 5.698 1.238 7.95 1.798 1.082.27 2.621.895 4.617 1.876 1.916.931 3.501 1.554 4.755 1.866 2.422.603 3.342 2.073 2.76 4.408-.334 1.341-1.09 2.4-2.267 3.181-1.178.78-2.494.991-3.947.629-1.396-.348-2.971-.953-4.723-1.813-1.781-.867-3.371-1.474-4.766-1.821a101.322 101.322 0 0 0-18.9-2.847 9.757 9.757 0 0 1-1.709-.244c-2.365-.589-3.306-1.852-2.824-3.79.44-1.767 1.785-3.157 4.034-4.17 10.308-4.695 22.636-12.761 36.984-24.197-3.825-.68-6.593-1.233-8.302-1.658-2.194-.547-5.104-1.439-8.73-2.674-3.626-1.236-5.632-2.266-6.017-3.088a3.734 3.734 0 0 1-.248-2.558c.348-1.396 1.126-2.518 2.336-3.367s2.499-1.104 3.867-.763c1.595.397 3.615 1.098 6.059 2.1 2.764 1.052 4.83 1.748 6.198 2.088 1.937.482 4.879 1.064 8.825 1.744 4.58.808 7.568 1.385 8.965 1.733 2.137.532 3.01 1.583 2.62 3.15-.603 2.422-2.742 4.75-6.414 6.981-3.958 2.405-9.029 5.816-15.214 10.237-8.257 6.054-13.559 9.787-15.909 11.199zM2817.555 345.823c3.423-.336 6.413-.58 8.97-.734 1.229-.074 3.058.076 5.484.45 2.327.347 4.203.479 5.627.393 2.751-.165 4.207 1.079 4.366 3.732.092 1.523-.354 2.889-1.337 4.101-.983 1.211-2.3 1.869-3.95 1.968-1.586.095-3.445-.022-5.576-.349-2.163-.325-4.039-.438-5.624-.343a111.916 111.916 0 0 0-20.854 3.25 10.78 10.78 0 0 1-1.882.308c-2.687.161-4.096-.858-4.228-3.059-.121-2.007.837-3.916 2.872-5.727 9.308-8.356 19.629-20.93 30.965-37.724-4.255.548-7.354.881-9.296.998-2.493.15-5.854.172-10.082.069-4.229-.103-6.683-.525-7.361-1.264a4.118 4.118 0 0 1-1.107-2.613c-.095-1.586.354-3.025 1.348-4.319.994-1.294 2.268-1.99 3.822-2.083 1.812-.109 4.172-.039 7.078.209 3.26.194 5.667.244 7.22.151 2.201-.132 5.492-.492 9.875-1.081 5.092-.663 8.432-1.044 10.018-1.139 2.427-.146 3.695.672 3.802 2.452.165 2.751-1.318 5.911-4.449 9.476-3.375 3.843-7.59 9.114-12.644 15.817-6.697 9.11-11.049 14.796-13.057 17.061z"/><circle cx="3463.484" cy="395.225" r="77.543" fill="#ffdbbb" transform="rotate(-45.001 3463.496 395.267)"/><path fill="#ffdbbb" d="M3374.872 469.295c.422.022.83.226 1.099.593 21.407 29.209 62.358 38.758 104.327 24.331a1.455 1.455 0 0 1 .946 2.75c-21.839 7.508-43.757 8.78-63.384 3.679-18.282-4.752-33.991-15.065-44.234-29.041a1.453 1.453 0 0 1 1.246-2.312zM3572.267 370.796c.587.03 1.122.417 1.311 1.011 6.225 19.521 6.916 38.989 1.999 56.3-4.582 16.132-14.051 29.871-26.662 38.685a1.455 1.455 0 0 1-1.666-2.383c26.232-18.334 35.479-54.336 23.559-91.719a1.454 1.454 0 0 1 1.459-1.894zM3602.599 451.922a1.454 1.454 0 0 1 1.329 1.836c-5.403 19.764-15.419 36.473-28.966 48.319-12.624 11.039-28.045 17.412-43.422 17.942a1.46 1.46 0 0 1-1.503-1.403 1.454 1.454 0 0 1 1.403-1.503c31.985-1.104 59.337-26.272 69.684-64.121a1.454 1.454 0 0 1 1.475-1.07zM3405.258 293.868a1.454 1.454 0 0 1 .637 2.721c-34.242 19.158-52.083 51.767-45.45 83.076a1.453 1.453 0 1 1-2.845.603c-3.189-15.052-.719-31.554 6.955-46.466 8.235-16.001 22.039-29.747 39.919-39.751.249-.138.52-.197.784-.183zM3566.904 295.178c.177.009.355.051.526.128 14.012 6.355 25.837 18.128 33.297 33.147 8.004 16.118 10.891 35.384 8.347 55.714a1.462 1.462 0 0 1-1.623 1.262 1.454 1.454 0 0 1-1.262-1.623c4.871-38.934-10.814-72.633-39.96-85.852a1.455 1.455 0 0 1-.724-1.925c.254-.559.82-.88 1.399-.851zM3324.737 307.277a1.453 1.453 0 0 1 .504 2.787c-17.706 7.668-32.846 41.174-26.758 98.742a1.454 1.454 0 0 1-2.892.306c-5.491-51.916 5.694-91.842 28.494-101.717.213-.091.435-.129.652-.118zM3451.59 249.1c7.75.397 14.442 2.468 19.757 6.303a1.454 1.454 0 0 1-1.702 2.358c-15.647-11.292-52.182-7.16-98.533 27.52a1.455 1.455 0 0 1-1.742-2.328c30.775-23.025 60.593-34.962 82.22-33.853zM3347.044 406.54a1.455 1.455 0 0 1 1.348 1.765c-3.282 14.915-1.906 29.537 3.981 42.284a1.453 1.453 0 1 1-2.639 1.219c-6.155-13.329-7.6-28.588-4.181-44.129a1.45 1.45 0 0 1 1.491-1.139zM3543.551 492.821a1.454 1.454 0 0 1 .956 2.477c-10.354 10.408-24.157 17.073-39.916 19.275a1.454 1.454 0 1 1-.402-2.88c15.125-2.113 28.354-8.491 38.257-18.445a1.444 1.444 0 0 1 1.105-.427zM3475.039 279.144c14.66.752 28.185 4.676 39.562 11.534 12.928 7.793 22.622 19.267 27.297 32.306a1.455 1.455 0 0 1-2.737.982c-9.677-26.992-38.636-43.455-73.775-41.951a1.445 1.445 0 0 1-1.515-1.39 1.454 1.454 0 0 1 1.39-1.515c3.305-.143 6.57-.131 9.778.034z"/><path fill="#5e290b" d="M3123.027 865.885h263.904v163.546h-263.904z" transform="matrix(1 -.0075 .0075 1 -7.044 24.538)"/><path fill="#954512" d="m3122.415 866.88 132.564 80.778 131.333-82.765z"/><path fill="#f85d42" d="M3074.84 2631.924c.14.744.442 2.441.906 4.999a61.45 61.45 0 0 1-.906-4.999z"/><path fill="#fff" d="M3062.106 835.435c-.47-1.549-1.946-2.546-3.558-2.466-.967.068-96.743 5.301-146.964-62.16-34.974-46.981-39.32-75.066-38.811-87.613 11.219-53.842 15.788-107.147 4.485-146.51a3.491 3.491 0 0 0-4.314-2.39 3.49 3.49 0 0 0-2.389 4.316c10.288 35.829 6.693 84.473-3.147 134.521-14.93 32.253-65.978 64.297-112.06 70.196-22.537 2.887-53.573 1.015-74.159-23.94-11.135-60.34-9.297-119.823-.403-152.932a3.488 3.488 0 1 0-6.735-1.81c-8.714 32.429-11.608 92.838.255 156.426 2.113 53.821-80.407 113.491-109.492 122.109a3.488 3.488 0 0 0-2.355 4.335c.55 1.847 2.509 2.903 4.335 2.353 30.026-8.896 97.491-58.232 111.797-108.489.365 1.546.726 3.093 1.109 4.64 4.801 19.363 11.545 40.632 20.961 61.426-2.224 12.918-24.256 132.133-82.844 161.99l-53.279 20.719a3.49 3.49 0 0 0-1.987 4.514 3.49 3.49 0 0 0 4.517 1.987l40.862-15.891c4.465-1.237 8.744-2.928 12.852-4.997l75.904-29.518c7.14-.622 97.332-7.343 127.545 42.573 22.015 122.911-10.304 299.336-10.724 301.58a3.489 3.489 0 0 0 6.857 1.282c.797-4.265 7.994-43.539 13.27-96.658 16.21-42.403 69.278-64.177 99.178-67.947 14.254-1.8 25.164-.018 28.662 4.63 14.966 41.645 33.927 121.974 39.976 166.664a3.486 3.486 0 0 0 3.924 2.988 3.486 3.486 0 0 0 2.988-3.924c-5.99-44.258-24.934-125.181-40.346-168.15.017-13.334 1.29-233.368 61.633-273.505 17.818-8.792 29.215-15.357 30.873-16.321a3.488 3.488 0 0 0 1.584-4.028zm-305.872-85.187c41.082-5.259 84.595-29.445 107.055-57.601-6.6 29.247-14.986 58.459-23.652 85.404-8.77 7.765-84.492 72.147-132.437 26.742-10.426-22.908-18.119-47.791-23.502-72.84 17.744 15.597 42.996 22.076 72.536 18.295zm49.703 162.438c17.477 9.571 34.754 23.38 51.365 40.608-4.738-.378-9.17.471-13.261 2.555-7.611 3.877-12.498 11.339-15.523 18-5.16-23.09-12.487-43.991-22.581-61.163zm-102.788 23.567c9.02-18.039 26.269-54.956 28.466-77.446 14.778 18.368 32.982 34.123 55.356 44.849l-83.822 32.597zm155.759 8.539c-14.03-14.017-28.412-25.587-42.886-34.367 13.814 1.244 28.128.978 42.583-.41-.229.389-.476.758-.682 1.169-4.713 9.395-2.33 22.908.985 33.608zm-57.931-43.524c2.937-6.712 8.997-20.853 16.576-40.089 6.507 20.361 30.188 34.481 44.35 41.31-21.06 2.386-41.758 2.362-60.926-1.221zm-6.778-1.941c-19.378-8.51-35.972-21.231-50.113-36.845 26.995 12.144 54.384.345 68.338-7.788-8.592 22.171-15.421 38.183-18.225 44.633zm22.447-55.665c-6.831 5.178-51.216 36.249-87.686-.252-5.42-7.778-10.39-16.017-14.919-24.627 10.689 6.445 22.137 9.046 33.661 9.045 35.272-.005 71.189-24.364 87.886-37.403a1410.528 1410.528 0 0 1-18.942 53.237zm55.146 114.833c-4.191-8.361-13.594-32.299-7.633-44.182 1.276-2.545 3.225-4.395 5.867-5.62 17.674-2.386 35.417-6.304 52.585-11.109-25.701 30.109-18.784 82.441-11.383 113.816-12.544-19.798-25.772-37.523-39.436-52.905zm3.465-57.8c-.056-.024-.096-.066-.153-.087-.565-.207-56.008-20.906-52.043-53.631a1398.704 1398.704 0 0 0 14.785-40.603c6.142 49.499 62.671 74.428 87.137 82.967-16.237 4.73-33.002 8.712-49.726 11.354zm-169.47-82.536c5.368 10.645 11.48 21.053 18.463 30.891 5.194 11.857-14.343 59.182-30.864 91l-50.623 19.687c39.419-38.481 57.45-113.494 63.024-141.578zm10.735 120.379 78.229-30.422c12.036 17.219 20.515 39.654 26.305 65.024-27.628-29.555-76.579-34.44-104.534-34.602zm114.735 48.876c.909-3.973 5.151-19.847 15.952-25.351 5.305-2.707 11.679-2.422 18.916.778 15.605 17.57 30.526 38.102 44.36 60.883-5.731-2.192-12.15-2.935-18.864-2.035-19.544 2.625-38.299 18.401-52.724 43.874-.824-26.903-3.148-53.52-7.64-78.149zm100.682 132.747c-34.055 4.294-75.839 24.997-96.614 56.526 2.536-29.937 4.248-63.154 3.874-96.431 13.967-30.151 33.365-48.968 53.351-51.653 10.354-1.382 19.793 1.925 26.095 9.046 14.565 25.739 27.742 53.959 39.012 83.733-6.404-2.099-15.118-2.555-25.718-1.221zm29.313-8.869c-9.857-25.157-21.135-49.478-33.713-72.333-.789-1.432-1.597-2.815-2.392-4.23-1.42-4.066-36.808-107.574 12.948-141.752 27.05-8.521 52.075-18.806 72.379-28.084-41.247 54.555-48.106 195.211-49.222 246.399zm-24.525-225.524c-11.51-3.211-105.533-31.803-90.853-103.3 8.067-24.849 15.911-51.72 22.356-78.887 4.146 16.542 14.414 40.033 37.759 71.392 40.761 54.756 109.957 63.674 139.25 64.901-19.457 10.288-60.93 30.789-108.512 45.894z"/><path fill="#ffae55" d="M2649.247 1040.203c2.914-6.582-.059-14.28-6.64-17.194l-154.922-68.598c-6.582-2.914-14.28.059-17.194 6.64s.059 14.28 6.64 17.194l154.922 68.597c6.582 2.915 14.28-.058 17.194-6.639zM2708.762 1194.306c-6.582-2.914-14.28.059-17.194 6.64l-68.597 154.922c-2.914 6.582.059 14.28 6.64 17.194 6.582 2.914 14.28-.059 17.194-6.64l68.597-154.922c2.915-6.582-.058-14.28-6.64-17.194zM2647.089 1129.58c-2.593-6.715-10.139-10.056-16.853-7.462l-158.052 61.041c-6.715 2.593-10.055 10.139-7.462 16.853 2.593 6.715 10.139 10.056 16.854 7.462l158.052-61.041c6.713-2.593 10.054-10.138 7.461-16.853z"/><path fill="#f9ae93" d="m1657.828 2543.863-.766 27.051-.83 29.308-.522 18.896s1.533-.309-11.955 26.104c-13.488 26.434-57.062.394-57.062.394l3.3-53.964.149-2.502 1.001-16.331 1.245-20.451.117-1.778.309-5.131 6.888-.17 58.126-1.426z"/><path fill="#fff" d="M1643.75 2645.228c13.495-26.417 11.955-26.106 11.955-26.106l.53-18.896c-13.623 2.786-47.666 7.35-66.09-11.075l-1.528 24.911-1.924 31.553c-.001 0 43.574 26.041 57.057-.387z"/><path fill="#dbeafc" d="M1643.75 2645.228c13.495-26.417 11.955-26.106 11.955-26.106l.53-18.896s-2.427 13.751-17.232 26.771c-14.654 12.865-43.529 2.677-50.386-12.934l-1.924 31.553c-.001-.001 43.574 26.04 57.057-.388z"/><path fill="#a9be3a" d="M1684.787 2688.638c6.01-6.865 22.55-6.372 43.237-2.315 4.883.962 10.242 1.018 15.582.534 8.725-.761 17.389-2.948 23.828-4.915-5.908-28.068-73.143-42.939-81.521-46.235-9.413-3.722-12.844-28.077-19.46-26.22-6.604 1.847-22.254 35.381-48.53 34.335-6.682-.267-11.663-1.337-15.425-2.969-5.453-2.38-8.316-5.944-10.006-10.018-.011-.011-.011-.021-.022-.032-1.732-4.181-2.245-8.881-3.035-13.344-2.129-11.865-12.508-20.615-14.751.383 0 0-6.42 52.169-13.333 58.686-.462.432-.995.958-1.598 1.598 11.671 10.079 32.71 1.75 42.217 2.032 10.903.316 5.117 12.148 18.665 8.822 13.559-3.326 17.403-7.562 38.165-4.2 20.753 3.363 19.966 10.713 25.987 3.858z"/><path fill="#fff" d="M1586.585 2714.776c22.888-5.983 46.713-13.654 71.355-11.339 21.678 2.032 72.921 3.026 93.768-2.448 2.858-.744 5.145-1.607 6.704-2.615 3.576-2.3 6.313-4.345 8.411-6.111 1.158-3.614 1.297-7.053.61-10.321-6.439 1.967-15.102 4.155-23.828 4.915-5.34.484-10.698.428-15.582-.534-20.687-4.057-37.227-4.551-43.237 2.315-6.021 6.855-5.234-.496-25.986-3.857-20.763-3.362-24.606.874-38.165 4.2-13.548 3.326-7.762-8.507-18.665-8.822-9.508-.282-30.546 8.047-42.217-2.032-4.081 4.262-11.174 12.854-16.428 21.68 5.869 13.929 23.536 20.131 43.26 14.969z"/><path fill="#7e892c" d="M1629.648 2728.272c22.04-15.696 42.165-16.192 60.283-13.697 13.933 1.92 44.575 8.856 63.543-4.052 5.703-3.874 10.34-9.538 13.164-17.662.062-.189.135-.398.185-.597-2.098 1.765-4.834 3.811-8.411 6.111-1.559 1.008-3.846 1.871-6.704 2.615-20.848 5.473-72.091 4.48-93.768 2.448-24.643-2.315-48.467 5.356-71.355 11.339-19.724 5.162-37.391-1.039-43.259-14.969-5.809 9.784-9.384 19.833-4.051 24.502 10.866 9.499 68.333 19.669 90.373 3.962zM1743.606 2686.858c8.725-.761 17.389-2.948 23.828-4.915-5.908-28.068-73.143-42.939-81.521-46.235-9.413-3.722-12.844-28.077-19.46-26.22-6.604 1.847-22.254 35.381-48.53 34.335-6.682-.267-11.663-1.337-15.425-2.969 13.283 8.788 33.266 11.022 45.754 4.482 10.831-5.672 71.278 11.981 95.354 41.522z"/><path fill="#fff" d="M1734.54 2649.716c.026-.936-.091-1.959-.352-3.069-.273-1.162-1.103-4.698-4.204-5.732-3.197-1.066-6.167 1.143-9.04 3.28-1.21.9-2.461 1.83-3.526 2.355-2.496 1.228-6.597 1.614-8.725.231-1.415-.92-1.953-2.717-1.601-5.342.301-2.236.364-4.976-1.831-6.347-2.416-1.508-5.09-.069-7.92 1.455-2.241 1.206-5.31 2.859-6.661 2.006-2.244-1.417-4.541-5.412-5.912-7.8-1.417-2.466-2.537-4.415-5.037-3.589-2.643.872-2.23 2.974-1.122 8.592.282 1.433 1.75 2.38 3.279 2.115.227-.039.442-.103.643-.188 1.402 2.041 3.076 4.03 5.006 5.248 4.258 2.687 9.083.089 12.607-1.808.418-.225.928-.5 1.414-.745-.013.124-.03.258-.049.401-.792 5.893 1.726 8.874 3.977 10.338 4.175 2.715 10.48 2.108 14.548.105 1.533-.754 2.994-1.842 4.408-2.893 1.055-.784 2.744-2.041 3.609-2.341.153.253.403.781.641 1.793.395 1.682.204 2.569-.079 2.818-.52.457-2.318.415-3.578.073-1.487-.404-3.051.393-3.489 1.785-.437 1.391.399 2.854 1.882 3.272.585.165 5.804 1.529 9.01-1.259 1.345-1.169 2.048-2.762 2.102-4.754z"/><path fill="#f6816b" d="M1645.043 2566.933c-.181 20.76-23.495 34.972-33.002 36.728-4.908.905-15.873-4.759-22.047-12.009l.149-2.502 1.001-16.331a24.477 24.477 0 0 1 2.906-1.629c23.665-11.358 50.993-4.257 50.993-4.257z"/><path fill="#7e892c" d="M1621.463 2576.337c26.517 1.09 45.507-3.27 46.67-6.54 1.163-3.27 31.756-1028.457 31.756-1028.457l-78.426 1034.997z"/><path fill="#f9ae93" d="M1611.167 2684.623c-12.221 27.03-56.976 3.076-56.976 3.076l.788-56.561.149-10.795.362-26.05.032-1.789.064-5.131 6.867-.5 54.155-3.896 3.833-.277.17 8.74.351 18.322.554 29.319.362 18.896c-.001-.001 1.522-.384-10.711 26.646z"/><path fill="#fff" d="M1611.172 2684.619c12.231-27.025 10.708-26.642 10.708-26.642l-.364-18.9c-13.476 3.427-47.266 9.593-66.539-7.94l-.349 24.956-.432 31.608s44.755 23.954 56.976-3.082z"/><path fill="#dbeafc" d="M1611.172 2684.619c12.231-27.025 10.708-26.642 10.708-26.642l-.364-18.9s-1.775 13.85-15.948 27.555c-14.03 13.543-43.354 4.73-50.941-10.54l-.432 31.608c.001.001 44.756 23.955 56.977-3.081z"/><path fill="#a9be3a" d="M1654.213 2726.043c5.679-7.141 22.224-7.43 43.08-4.354 4.924.73 10.279.533 15.589-.203 8.68-1.172 17.23-3.767 23.569-6.035-7.227-27.757-75.09-39.436-83.614-42.332-9.578-3.273-14.156-27.439-20.677-25.271-6.51 2.156-20.557 36.392-46.854 36.589-6.687.049-11.713-.785-15.548-2.238-5.559-2.12-8.588-5.544-10.468-9.533-.011-.011-.012-.021-.023-.031-1.927-4.094-2.662-8.765-3.662-13.186-2.687-11.751-13.468-20.001-14.716 1.08 0 0-3.948 52.414-10.546 59.25a36.496 36.496 0 0 0-1.521 1.672c12.134 9.516 32.756.202 42.266.035 10.906-.2 5.685 11.893 19.061 7.931 13.387-3.963 17.026-8.376 37.924-5.998 20.889 2.376 20.45 9.756 26.14 2.624z"/><path fill="#fff" d="M1557.356 2756.79c22.58-7.058 46.016-15.846 70.74-14.697 21.75 1.006 72.982-.422 93.548-6.874 2.82-.878 5.064-1.848 6.573-2.929 3.464-2.466 6.1-4.639 8.113-6.501.986-3.665.963-7.107.121-10.339-6.339 2.269-14.889 4.863-23.569 6.035-5.311.735-10.666.933-15.589.203-20.856-3.075-37.401-2.787-43.08 4.354-5.691 7.132-5.252-.248-26.139-2.625-20.898-2.377-24.537 2.035-37.924 5.998-13.376 3.962-8.155-8.131-19.061-7.931-9.51.167-30.132 9.481-42.266-.035-3.875 4.45-10.555 13.367-15.385 22.432 6.519 13.638 24.459 18.997 43.918 12.909z"/><path fill="#7e892c" d="M1601.008 2768.238c21.274-16.719 41.354-18.166 59.569-16.529 14.008 1.259 44.944 6.741 63.281-7.05 5.514-4.139 9.878-10.015 12.315-18.264.052-.191.116-.404.157-.605-2.012 1.862-4.649 4.035-8.113 6.501-1.51 1.08-3.754 2.051-6.573 2.929-20.566 6.452-71.798 7.881-93.548 6.874-24.725-1.149-48.16 7.639-70.74 14.697-19.458 6.088-37.399.728-43.918-12.909-5.34 10.047-8.437 20.254-2.889 24.666 11.302 8.976 69.185 16.419 90.459-.31zM1712.882 2721.486c8.68-1.172 17.23-3.767 23.569-6.035-7.227-27.757-75.09-39.436-83.614-42.332-9.578-3.273-14.156-27.439-20.677-25.271-6.51 2.156-20.557 36.392-46.854 36.589-6.687.049-11.713-.785-15.548-2.238 13.683 8.151 33.75 9.439 45.914 2.316 10.552-6.178 71.766 8.601 97.21 36.971z"/><path fill="#fff" d="M1702.072 2684.814c-.018-.936-.184-1.953-.497-3.049-.327-1.148-1.324-4.64-4.47-5.527-3.243-.914-6.106 1.433-8.875 3.703-1.166.956-2.372 1.945-3.411 2.519-2.435 1.345-6.513 1.924-8.704.643-1.457-.852-2.079-2.622-1.851-5.26.195-2.248.128-4.988-2.129-6.253-2.484-1.392-5.087.172-7.843 1.828-2.181 1.311-5.169 3.106-6.559 2.318-2.309-1.309-4.791-5.192-6.274-7.511-1.532-2.397-2.742-4.29-5.201-3.347-2.599.996-2.087 3.076-.715 8.635.35 1.418 1.861 2.295 3.375 1.958.225-.05.437-.124.634-.218 1.497 1.972 3.263 3.88 5.249 5.005 4.38 2.483 9.078-.34 12.507-2.401.407-.244.904-.543 1.377-.811-.007.125-.017.259-.03.402-.513 5.924 2.143 8.782 4.461 10.139 4.299 2.515 10.568 1.611 14.537-.582 1.495-.826 2.904-1.981 4.266-3.098 1.016-.833 2.645-2.168 3.494-2.509.165.245.44.76.725 1.761.474 1.661.325 2.557.054 2.818-.498.48-2.296.524-3.57.241-1.505-.333-3.029.536-3.401 1.948-.371 1.41.533 2.832 2.035 3.179.592.137 5.87 1.253 8.941-1.683 1.288-1.231 1.915-2.855 1.875-4.848z"/><path fill="#f6816b" d="M1620.61 2591.439c-4.492 11.87-54.081 30.511-65.483 28.903l.362-26.05.032-1.789.064-5.131 6.867-.5 54.155-3.896a870.724 870.724 0 0 1 4.003 8.463z"/><path fill="#a9be3a" d="M1699.89 1541.342c-.979 15.916-64.716 1034.725-67.804 1044.795-3.098 10.188-86.806 11.646-88.361 0-1.086-8.304-105.383-537.052-164.841-838.181-16.565-83.9-29.649-150.117-36.047-182.502 49.12-3.3 142.143-10.135 184.014-13.222 12.615-.937 20.589-1.533 21.334-1.586 2.342-.17 8.325-22.367 13.989-42.243 4.184-14.713 8.197-28.158 10.422-30.479 4.588-4.77 13.616 52.282 21.654 68.027 1.139 2.246 2.257 3.641 3.343 3.918 8.656 2.151 100.881.043 102.297-8.527z"/><path fill="#fff" d="M1591.381 2591.812a2.66 2.66 0 0 1-2.642-2.37s-.479-4.342-1.356-12.525a2.662 2.662 0 0 1 5.292-.567c.876 8.17 1.354 12.506 1.354 12.509a2.662 2.662 0 0 1-2.648 2.953zm-2.828-26.351a2.661 2.661 0 0 1-2.643-2.381c-.44-4.154-.925-8.768-1.453-13.817a2.66 2.66 0 0 1 2.37-2.923 2.654 2.654 0 0 1 2.923 2.37c.528 5.047 1.013 9.658 1.452 13.811a2.663 2.663 0 0 1-2.649 2.94zm-2.888-27.617a2.662 2.662 0 0 1-2.644-2.388c-.452-4.364-.926-8.968-1.421-13.801a2.662 2.662 0 0 1 2.376-2.919c1.459-.16 2.769.914 2.919 2.376.495 4.83.969 9.432 1.421 13.795a2.661 2.661 0 0 1-2.651 2.937zm-2.829-27.594a2.661 2.661 0 0 1-2.645-2.393c-.451-4.442-.916-9.043-1.395-13.795a2.66 2.66 0 0 1 2.381-2.915 2.652 2.652 0 0 1 2.915 2.381c.478 4.751.943 9.35 1.395 13.791a2.661 2.661 0 0 1-2.651 2.931zm-2.777-27.585a2.661 2.661 0 0 1-2.645-2.397c-.448-4.484-.905-9.083-1.371-13.793a2.662 2.662 0 0 1 2.386-2.911 2.668 2.668 0 0 1 2.911 2.386c.466 4.709.923 9.306 1.371 13.789a2.662 2.662 0 0 1-2.652 2.926zm-2.73-27.582a2.662 2.662 0 0 1-2.646-2.402c-.442-4.508-.892-9.107-1.348-13.793a2.662 2.662 0 0 1 5.298-.516c.456 4.685.906 9.281 1.348 13.789a2.662 2.662 0 0 1-2.652 2.922zm-2.685-27.581a2.662 2.662 0 0 1-2.646-2.406l-1.326-13.793a2.662 2.662 0 0 1 5.299-.507l1.325 13.789a2.661 2.661 0 0 1-2.652 2.917zm-2.64-27.582a2.66 2.66 0 0 1-2.646-2.41l-1.304-13.793a2.661 2.661 0 0 1 2.401-2.899 2.658 2.658 0 0 1 2.899 2.4l1.303 13.789a2.661 2.661 0 0 1-2.653 2.913zm-2.596-27.583a2.662 2.662 0 0 1-2.647-2.414c-.424-4.548-.852-9.147-1.281-13.794a2.66 2.66 0 0 1 2.405-2.895 2.66 2.66 0 0 1 2.895 2.405c.43 4.647.857 9.244 1.281 13.79a2.66 2.66 0 0 1-2.653 2.908zm-2.552-27.586a2.662 2.662 0 0 1-2.647-2.419c-.417-4.555-.838-9.154-1.259-13.795a2.661 2.661 0 0 1 2.41-2.891 2.668 2.668 0 0 1 2.891 2.41c.422 4.639.842 9.237 1.259 13.791a2.661 2.661 0 0 1-2.654 2.904zm-2.507-27.587a2.66 2.66 0 0 1-2.647-2.422c-.412-4.562-.824-9.162-1.238-13.798a2.662 2.662 0 0 1 5.303-.473c.414 4.634.826 9.231 1.237 13.792a2.662 2.662 0 0 1-2.655 2.901zm-2.462-27.591a2.66 2.66 0 0 1-2.648-2.426c-.404-4.568-.809-9.168-1.215-13.799a2.662 2.662 0 1 1 5.302-.465c.406 4.63.81 9.229 1.215 13.794a2.66 2.66 0 0 1-2.654 2.896zm-2.419-27.593a2.66 2.66 0 0 1-2.648-2.431c-.397-4.572-.794-9.173-1.191-13.8a2.661 2.661 0 0 1 5.303-.457c.398 4.626.795 9.225 1.192 13.795a2.661 2.661 0 0 1-2.656 2.893zm-2.37-27.596a2.662 2.662 0 0 1-2.649-2.436c-.389-4.576-.779-9.178-1.168-13.802a2.66 2.66 0 0 1 5.304-.447c.389 4.623.779 9.222 1.168 13.798a2.662 2.662 0 0 1-2.655 2.887zm-2.323-27.601a2.661 2.661 0 0 1-2.649-2.44c-.382-4.581-.764-9.182-1.144-13.804a2.662 2.662 0 0 1 2.434-2.871 2.667 2.667 0 0 1 2.871 2.434c.38 4.62.762 9.22 1.143 13.798a2.662 2.662 0 0 1-2.655 2.883zm-2.273-27.603a2.66 2.66 0 0 1-2.65-2.445c-.374-4.584-.746-9.187-1.118-13.806a2.662 2.662 0 0 1 5.306-.428c.371 4.617.744 9.219 1.118 13.801a2.662 2.662 0 0 1-2.656 2.878zm-2.224-27.607a2.662 2.662 0 0 1-2.65-2.45c-.365-4.587-.729-9.19-1.092-13.808a2.662 2.662 0 0 1 2.445-2.862 2.658 2.658 0 0 1 2.862 2.445c.363 4.615.727 9.216 1.092 13.802a2.662 2.662 0 0 1-2.657 2.873zm-2.17-27.61a2.663 2.663 0 0 1-2.651-2.455c-.357-4.591-.712-9.194-1.065-13.81a2.662 2.662 0 0 1 2.45-2.857 2.668 2.668 0 0 1 2.857 2.451c.354 4.614.708 9.215 1.065 13.804a2.662 2.662 0 0 1-2.656 2.867zm-2.116-27.614a2.661 2.661 0 0 1-2.651-2.46c-.348-4.593-.693-9.197-1.037-13.812a2.661 2.661 0 1 1 5.308-.396c.344 4.613.689 9.214 1.038 13.805a2.662 2.662 0 0 1-2.658 2.863zm-2.06-27.618a2.661 2.661 0 0 1-2.651-2.466c-.338-4.596-.674-9.201-1.008-13.814a2.662 2.662 0 0 1 2.462-2.847 2.673 2.673 0 0 1 2.847 2.462c.334 4.611.67 9.214 1.008 13.809a2.66 2.66 0 0 1-2.658 2.856zm-2-27.623a2.661 2.661 0 0 1-2.652-2.472c-.328-4.599-.654-9.204-.978-13.816a2.663 2.663 0 0 1 5.31-.372c.323 4.609.649 9.213.977 13.809a2.661 2.661 0 0 1-2.657 2.851zm-1.939-27.627a2.663 2.663 0 0 1-2.653-2.478c-.318-4.602-.633-9.208-.946-13.818a2.66 2.66 0 1 1 5.31-.36c.313 4.608.627 9.212.946 13.811a2.663 2.663 0 0 1-2.657 2.845zm-1.874-27.631a2.662 2.662 0 0 1-2.653-2.485c-.307-4.604-.611-9.211-.912-13.82a2.66 2.66 0 1 1 5.311-.347c.301 4.607.605 9.212.912 13.814a2.662 2.662 0 0 1-2.658 2.838zm-1.806-27.636a2.662 2.662 0 0 1-2.654-2.491c-.296-4.622-.589-9.245-.879-13.867a2.662 2.662 0 0 1 2.49-2.823 2.655 2.655 0 0 1 2.823 2.489c.29 4.621.583 9.241.879 13.861a2.661 2.661 0 0 1-2.659 2.831zm-1.738-27.715a2.661 2.661 0 0 1-2.654-2.498c-.284-4.614-.564-9.229-.841-13.841a2.66 2.66 0 0 1 2.497-2.816 2.655 2.655 0 0 1 2.816 2.497c.276 4.61.556 9.221.839 13.834a2.66 2.66 0 0 1-2.657 2.824zm-1.659-27.663a2.66 2.66 0 0 1-2.654-2.506c-.269-4.608-.536-9.213-.798-13.815a2.661 2.661 0 0 1 2.505-2.809c1.478-.068 2.725 1.038 2.809 2.506.262 4.599.528 9.202.797 13.807a2.661 2.661 0 0 1-2.659 2.817zm-1.574-27.608a2.66 2.66 0 0 1-2.655-2.514c-.255-4.601-.507-9.198-.755-13.79a2.663 2.663 0 0 1 2.514-2.801 2.65 2.65 0 0 1 2.801 2.514c.247 4.589.498 9.183.754 13.781a2.661 2.661 0 0 1-2.659 2.81zm-1.485-27.557a2.663 2.663 0 0 1-2.656-2.523 8795.77 8795.77 0 0 1-.711-13.833 2.661 2.661 0 1 1 5.316-.269c.233 4.601.47 9.211.711 13.825a2.662 2.662 0 0 1-2.66 2.8zm-1.398-27.66a2.661 2.661 0 0 1-2.656-2.531c-.226-4.621-.447-9.234-.663-13.837a2.661 2.661 0 1 1 5.317-.249c.216 4.6.437 9.209.663 13.826a2.66 2.66 0 0 1-2.661 2.791zm-1.299-27.664a2.663 2.663 0 0 1-2.657-2.542c-.209-4.624-.412-9.238-.61-13.84a2.66 2.66 0 0 1 2.544-2.773c1.482-.077 2.71 1.077 2.773 2.544.198 4.598.401 9.208.61 13.829a2.662 2.662 0 0 1-2.66 2.782zm-1.192-27.67a2.661 2.661 0 0 1-2.657-2.552c-.19-4.627-.375-9.241-.554-13.842a2.661 2.661 0 1 1 5.319-.207c.179 4.597.363 9.207.554 13.831a2.663 2.663 0 0 1-2.55 2.769l-.112.001zm-1.077-27.675a2.662 2.662 0 0 1-2.658-2.564c-.17-4.631-.334-9.247-.492-13.846a2.66 2.66 0 0 1 2.568-2.751 2.638 2.638 0 0 1 2.751 2.568c.158 4.595.322 9.206.491 13.833a2.66 2.66 0 0 1-2.562 2.757c-.031.003-.065.003-.098.003zm-.949-27.679a2.66 2.66 0 0 1-2.658-2.576c-.148-4.635-.29-9.251-.425-13.849a2.662 2.662 0 0 1 2.583-2.738c1.461-.013 2.695 1.113 2.738 2.582.135 4.593.276 9.205.424 13.834a2.66 2.66 0 0 1-2.575 2.745l-.087.002zm-.811-27.684a2.66 2.66 0 0 1-2.659-2.59 4601.3 4601.3 0 0 1-.35-13.852 2.662 2.662 0 0 1 2.598-2.724c1.5-.022 2.689 1.129 2.724 2.598.11 4.591.226 9.203.349 13.837a2.662 2.662 0 0 1-2.589 2.732l-.073-.001zm-.658-27.69a2.662 2.662 0 0 1-2.66-2.606 4559.95 4559.95 0 0 1-.266-13.855 2.66 2.66 0 0 1 2.614-2.708h.048a2.662 2.662 0 0 1 2.66 2.615c.081 4.587.17 9.2.266 13.838a2.662 2.662 0 0 1-2.606 2.716h-.056zm-.487-27.694a2.66 2.66 0 0 1-2.66-2.623c-.067-4.647-.125-9.267-.174-13.857a2.662 2.662 0 0 1 2.633-2.69c1.475.026 2.674 1.163 2.69 2.633.049 4.584.106 9.197.173 13.838a2.661 2.661 0 0 1-2.623 2.699h-.039zm-.296-27.696a2.661 2.661 0 0 1-2.661-2.643c-.033-4.653-.056-9.274-.069-13.86a2.661 2.661 0 0 1 2.654-2.669h.007a2.661 2.661 0 0 1 2.661 2.654c.013 4.579.036 9.192.069 13.839a2.661 2.661 0 0 1-2.643 2.68l-.018-.001zm-.078-27.694h-.004a2.661 2.661 0 0 1-2.658-2.665c.006-4.653.023-9.269.051-13.845.008-1.471 1.247-2.629 2.678-2.645a2.661 2.661 0 0 1 2.645 2.678c-.028 4.568-.045 9.175-.052 13.82a2.659 2.659 0 0 1-2.66 2.657zm.171-27.671h-.03a2.663 2.663 0 0 1-2.632-2.691c.052-4.663.116-9.281.192-13.854.024-1.469 1.203-2.681 2.705-2.617a2.662 2.662 0 0 1 2.617 2.705c-.075 4.563-.139 9.172-.191 13.825a2.66 2.66 0 0 1-2.661 2.632zm.464-27.677h-.061a2.662 2.662 0 0 1-2.601-2.721c.106-4.671.224-9.289.357-13.853a2.652 2.652 0 0 1 2.738-2.583 2.661 2.661 0 0 1 2.583 2.738 2072.75 2072.75 0 0 0-.356 13.817 2.663 2.663 0 0 1-2.66 2.602zm.806-27.668-.098-.001a2.663 2.663 0 0 1-2.563-2.757c.17-4.679.355-9.296.556-13.849a2.66 2.66 0 1 1 5.317.235c-.2 4.539-.385 9.143-.554 13.808a2.662 2.662 0 0 1-2.658 2.564zm1.226-27.653a2.662 2.662 0 0 1-2.66-2.803c.249-4.691.516-9.307.803-13.844a2.662 2.662 0 0 1 5.313.336c-.285 4.52-.552 9.118-.799 13.791a2.663 2.663 0 0 1-2.657 2.52zm1.75-27.624a2.662 2.662 0 0 1-2.658-2.859c.349-4.689.726-9.343 1.12-13.83a2.654 2.654 0 0 1 2.884-2.418 2.66 2.66 0 0 1 2.418 2.883c-.392 4.465-.766 9.094-1.114 13.76a2.66 2.66 0 0 1-2.65 2.464z"/><path fill="#7e892c" d="M1342.839 1565.455c49.12-3.3 142.143-10.135 184.014-13.222 0 0-136.427 38.623-146.008 80.068-4.418 19.13-3.854 68.282-1.959 115.656-16.565-83.9-29.649-150.117-36.047-182.502z"/><path fill="#37c6f7" d="M2194.417 1014.297c-12.95 30.78-29.19 69.31-46.28 109.06l-1.98 4.59c-.11.26-.22.51-.33.77v.01c-1.64 3.78-3.28 7.59-4.92 11.38v.01c-42.16 97.49-87.3 196.79-99.75 203.18-15.95 8.19-88.13-46.14-164.31-121.27-40.49-39.9-82.1-85.69-117.01-131.08-100.61-130.81 68.13-163.14 68.13-163.14 2.55 5.2 5.52 11 8.87 17.28 38.75 72.83 126.73 210.61 154.35 223.98 16.56 8.01 67.53-65.96 112.36-135.84.25-.4.51-.79.76-1.19 1.11-1.73 2.22-3.47 3.33-5.19 9.19-14.41 18.07-28.52 26.27-41.59 7.16 4.24 29.15 15.14 46.63 23.05 5.17 2.33 9.94 4.4 13.81 5.96.02.01.04.02.05.02l.02.01z"/><path fill="#0064a8" d="M1876.845 1222.03c-40.486-39.901-82.101-85.688-117.008-131.082-100.614-130.806 68.133-163.137 68.133-163.137a560.204 560.204 0 0 0 8.868 17.278c2.992 72.477 26.168 207.733 40.007 276.941z"/><path fill="#f9ae93" d="M2351.002 917.08c-3.928 3.683-70.305 11.966-106.193 21.388-.01 0-.032 0-.042.011-11.934 3.141-20.493 6.409-22.239 9.677-.703 1.278-2.789 6.079-6.026 13.669-10.209-3.247-46.203-14.649-56.827-17.427 9.719-15.106 16.597-25.241 19.248-27.317 14.531-11.446 177.306-4.898 172.079-.001z"/><path fill="#008fce" d="M1838.499 928.705c-52.037 107.768-133.563 556.842-138.588 612.435 0 0 0 .075-.021.202-1.416 8.57-93.641 10.678-102.296 8.527-8.719-2.182-19.759-77.396-24.996-71.945-5.227 5.45-20.344 72.424-24.411 72.722 0 0-.032 0-.096.011-5.259.394-141.835 10.529-205.252 14.798-16.97 1.128-28.691 1.852-31.256 1.852-8.016 0-59.212-181.363 74.191-388.414 60.383-93.694 158.549-192.658 315.639-282.456 24.06-13.765 49.493-27.296 76.395-40.571 11.625 1.81 35.28 17.789 50.387 37.782 7.718 10.178 9.677 23.836 10.252 34.077.02.331.042.661.052.98z"/><path fill="#f9ae93" d="M2133 722.335c-7.952.894-9.487 1.439-17.44 49.402-6.999 42.163-78.177 43.755-106.615 11.446-3.93-4.447-7.045-9.549-9.068-15.261-5.139-14.563-7.511-34.206-8.325-54.394-1.884-45.325 4.069-93.484 4.069-93.484s122.869-5.407 128.217 6.083c5.348 11.489-11.952 64.771 10.719 80.206 22.672 15.456 6.395 15.086-1.557 16.002z"/><path fill="#ffa608" d="M2106.551 629.311c-16.863 1.629-40.699 8.176-45.926 7.633-5.227-.554.585-3.279-7.271-3.279-2.15 0-4.823.862-7.665 2.15-7.527 3.439-16.278 9.965-19.652 11.753-4.652 2.449.873-10.358-2.906-8.996-3.779 1.363-22.633 29.574-22.633 29.574v-.043c-.096-.83-1.448-13.563-.639-25.135.564-8.027 2.161-15.5 5.951-18.023.628-.415 1.693-.766 3.119-1.054 20.12-4.054 113.357 3.887 97.622 5.42z"/><path fill="#ffa608" d="M2008.929 623.893c.032.298-.075.649-.33 1.054-1.852 2.896-3.918 14.18-5.866 27.317-.777 5.131-1.522 10.539-2.235 15.841-1.767 13.116-3.322 25.582-4.397 31.512-2.619 14.446-10.752 28.073-18.023 32.97-7.271 4.908-6.1-14.979-7.335-19.344-1.235-4.365-14.169 16.352-15.915 15.351-1.746-.99-2.331-3.364-.586-10.987 1.746-7.633-12.21 12.53-12.21 10.901 0-1.639 9.017-38.698 12.498-42.892 3.417-4.099-6.547-.17-6.962-.011 3.417-6.313 9.07-23.836 16.086-39.965 3.119-7.154 6.494-14.021 10.06-19.514-.002.002 34.757-7.077 35.215-2.233z"/><path fill="#64acc1" d="M2123.838 622.943c-3.581.087-6.139 0-6.139 0h6.139z"/><path fill="#ffa608" d="M2148.347 610.947h-.011c-.628.255-1.288.5-1.969.735-21.377 7.409-21.441 11.253-21.441 11.295l-7.229-.032s-.458-4.152 1.16-9.688c1.98-6.707 7.026-15.479 19.695-21.355 20.025-7.463 8.016-28.542-4.194-30.362 0 0 11.242-6.355 23.059 10.359 0 0 2.715-4.546-3.683-10.177 0 0 20.93 9.635 3.29 28.35 0 0 3.492 2.544 7.952-3.087 0-.001 2.725 16.169-16.629 23.962z"/><path fill="#f9ae93" d="M2001.62 668.824c-36.34-22.142-49.513 14.277-27.849 33.956 21.664 19.679 32.041-8.832 32.041-8.832l-4.192-25.124zM2008.939 783.187c-3.641-1.065-9.709.287-17.363 3.332-32.406 12.914-93.247 56.221-118.829 74.947l-.01-.011c-12.573-9.784-30.82-22.335-43.467-30.075a1886.106 1886.106 0 0 0 49.014-29.798c44.691-28.127 100.646-66.249 113.272-88.052 0 0 .021.383.053 1.107.053 1.512.128 3.034.224 4.535v.021c1.001 18.162 3.385 35.525 8.048 48.726 2.021 5.718 5.13 10.818 9.058 15.268z"/><path fill="#37c6f7" d="M1890.982 884.557c-7.766 3.27-46.901 51.604-50.784 57.054-1.837 2.594-1.233-3.576-1.698-12.906-.512-10.334-2.349-24.548-10.301-35.056-15.115-19.992-38.763-35.972-50.389-37.782-11.626-1.831-.651-9.309 6.976-14.541 7.371-5.058 24.811-17.441 30.624-17.07 1.697.109 6.929 2.9 13.859 7.129 12.65 7.74 30.903 20.297 43.484 30.086 4.301 3.336 7.952 6.344 10.464 8.742 13.951 13.254 15.509 11.074 7.765 14.344z"/><path fill="#f9ae93" d="M1860.174 1653.731c-.096 12.243-16.959-21.068-25.678-20.823-8.719.277-2.14 89.84-7.921 98.826-5.791 8.974-8.006-17.47-10.72-31.852-2.747-14.372-5.216-38.421-11.189-31.043-5.972 7.41 5.259 67.825-3.556 67.772-8.815 0-8.261-67.229-11.189-67.665-2.906-.447-12.626 64.184-22.495 66.239-.202.053-.415.064-.617.053-10.071-.649 11.391-64.482 7.835-68.73-3.556-4.216-34.205 54.996-41.689 43.84-7.463-11.189 29.851-46.267 31.022-62.459.745-10.603-2.001-48.226-3.981-72.924 16.874-3.556 44.563-11.945 58.563-16.778.021-.011.032-.011.032-.011 10.817 27.815 41.647 85.548 41.583 95.555z"/><path fill="#37c6f7" d="M2219.222 962.693s-13.162 51.952-15.115 54.503c-.442.567-4.139-.632-9.697-2.899-16.998-6.846-51.227-23.545-60.504-29.039-1.209-.698-1.977-1.221-2.256-1.504-3.115-3.27 25.183-39.961 25.183-39.961.349 0 1.349.218 2.837.61 10.627 2.769 46.622 14.171 56.83 17.419 1.722.544 2.722.871 2.722.871z"/><ellipse cx="2191.714" cy="993.207" fill="#fff" rx="10.076" ry="9.447"/><path fill="#0064a8" d="M2180.54 1008.304c-11.881-4.258-29.372-8.4-44.106-3.385-12.434 4.237-23.825 16.171-32.129 27.115 10.38-16.192 20.419-32.14 29.606-46.778 7.154 4.237 29.149 15.138 46.629 23.048z"/><path fill="#f6816b" d="M2244.767 938.478c-11.934 3.141-20.493 6.409-22.239 9.677-.703 1.278-2.789 6.079-6.026 13.669-10.209-3.247-46.203-14.649-56.827-17.427 0 0 39.571-.894 49.684 0 5.131.458 20.322-2.938 35.408-5.919zM2008.939 783.187c-3.641-1.065-9.709.287-17.363 3.332 1.874-23.155.809-54.624.255-67.324 1.001 18.162 3.385 35.525 8.048 48.726 2.023 5.716 5.132 10.816 9.06 15.266zM1854.319 827.665c.586 13.595 17.874 33.172 18.417 33.79-12.573-9.784-30.82-22.335-43.467-30.075a1886.106 1886.106 0 0 0 49.014-29.798c-13.35 10.966-24.166 21.346-23.964 26.083zM1997.24 680.664c-3.089-9.952-20.799-9.226-21.755 0-.956 9.226 16.255.71 17.142 6.92.887 6.21 3.016 10.114 3.903 4.258.887-5.856 2.307-6.033.71-11.178z"/><path fill="#f7841c" d="M2148.336 610.947c-.628.255-1.288.5-1.969.735-21.377 7.409-21.441 11.253-21.441 11.295l-7.229-.032s-.458-4.152 1.16-9.688c.852 2.119 1.671 3.833 1.906 4.823.841 3.449 1.693-5.461 3.822-5.727s-2.917 5.323-2.523 7.186c.394 1.863 5.323-10.252 26.274-8.592zM2106.551 629.311c-16.863 1.629-40.699 8.176-45.926 7.633-5.227-.554.585-3.279-7.271-3.279-2.15 0-4.823.862-7.665 2.15-3.29-2.693-4.524-6.111-9.06-2.438-7.048 5.717-6.92-1.171-16.629 1.682-8.783 2.566-9.624 11.072-17.268 17.204a25.754 25.754 0 0 1-2.704 1.874s6.664-13.052 2.001-11.189c-.788.319-1.49.277-2.172.021-3.364-1.235-6.164-7.58-15.309-.937-10.997 7.984-18.311 11.306-14.99 5.983 2.598-4.163-1.554-5.802-5.909-2.374 3.119-7.154 6.494-14.021 10.06-19.514 0 0 34.759-7.079 35.217-2.236 20.123-4.054 113.36 3.887 97.625 5.42z"/><path fill="#a9be3a" d="M2138.553 591.902h-.021c-.948.415-21.228 9.39-20.834 31.043h-146.892c-1.724-47.97 29.031-110.738 95.643-113.496 7.74-.319 15.979.17 24.698 1.586 50.387 8.22 53.176 49.408 47.406 80.867z"/><path fill="#7e892c" d="M2129.791 622.943c-1.535 4.033-2.604 6.366-2.604 6.366h-234.274c-10.069 0-13.184-6.366 5.046-5.625 18.207.72 72.852-.741 72.852-.741h158.98z"/><ellipse cx="2074.722" cy="509.842" fill="#7e892c" rx="8.284" ry="5.087"/><path fill="#0064a8" d="M1838.446 927.726c-1.767-21.111-41.157-63.556-88.904-47.449-21.686 7.324-37.399 12.573-48.13 16.16 24.06-13.765 49.493-27.296 76.395-40.571 11.625 1.81 35.28 17.789 50.387 37.782 7.718 10.178 9.677 23.836 10.252 34.078zM1547.936 1550.667c-7.23.54-142.18 10.55-205.1 14.79-16.97 1.13-28.69 1.85-31.25 1.85-6.72 0-43.8-127.49 23.03-290.73 2.49-6.1 5.13-12.24 7.93-18.44 11.61-25.75 25.86-52.27 43.23-79.24-11.15 26.56-20.24 54.48-27.62 82.52-.46 1.68-.89 3.37-1.32 5.06-31.91 124.52-30.61 249.91-26.03 267.17 6.27 23.58 209.08 17.27 217.13 17.02z"/><path fill="#9da530" d="M2117.698 622.945h-146.892c-1.724-47.97 29.031-110.738 95.643-113.496 0 .256-.011.394-.011.394-49.769 11.753-65.578 59.393-59.138 82.814s110.398 30.288 110.398 30.288z"/><path fill="#f6816b" d="M1780.021 1652.453c5.632 10.912-9.539 59.084-11.668 68.4-.82 3.598-1.011 9.028-.926 14.329-.202.053-.415.064-.617.053-10.071-.649 11.391-64.482 7.835-68.73-3.556-4.216-34.205 54.996-41.689 43.84-7.463-11.189 29.851-46.267 31.022-62.459.745-10.603-2.001-48.226-3.981-72.924 16.874-3.556 44.563-11.945 58.563-16.778-1.299.65-42.807 21.207-46.48 29.063-3.726 7.985 2.31 54.294 7.941 65.206z"/><path fill="#7e892c" d="m1594.251 1545.952-32.076-37.548c4.184-14.713 8.197-28.158 10.422-30.479 4.589-4.769 13.617 52.282 21.654 68.027z"/><path fill="#37c6f7" d="M1827.223 1554.77c-.488.458-3.721 1.701-8.627 3.401-13.998 4.84-41.716 13.233-58.597 16.787-5.674 1.177-10.115 1.831-12.417 1.613-3.162-.305-8.953-24.461-15.603-62.373l95.989-20.449c.231 36.189.046 60.279-.745 61.021z"/><ellipse cx="1757.318" cy="1543.733" fill="#fff" rx="10.755" ry="10.083"/><path fill="#37c6f7" d="M1827.966 1493.747s-.01 0-.02.01l-95.97 20.44c-2.02-11.49-4.12-24.24-6.26-37.98-2.28-14.69-4.61-30.51-6.92-47.11-.25-1.84-.51-3.69-.77-5.55-.03-.26-.07-.52-.1-.78-.15-1.04-.29-2.07-.43-3.11v-.01c-14.03-102.98-26.98-232.69-25.72-311.27 2.05-127.54 12.79-159.06 58.13-166.18 32.54-5.12 54.3 82.12 65.29 175.71.32 2.71.63 5.43.92 8.16 3.78 34.22 6.13 68.96 7.04 100.04 2.3 78.75 4.37 196.51 4.81 267.63z"/><path fill="#0064a8" d="M1827.97 1493.745s-.011 0-.021.011l-95.972 20.44c-2.023-11.487-4.12-24.241-6.26-37.974 3.63 5.312 8.314 11.785 11.231 14.415 5.323 4.79 91.022 3.108 91.022 3.108z"/><path fill="#3d9df4" d="M1730.43 1017.179c.915-2.975 2.273-5.665 4.334-8.021a20.416 20.416 0 0 1 2.566-2.492c1.955-.787 2.372-1.216 1.251-1.288-.946-.28-.839.213.321 1.479a255.899 255.899 0 0 0 6.95 18.852c1.322 3.197 3.368 6.444 7.348 4.416 2.117-1.079 3.74-4.009 5.191-5.792l7.047-8.663-4.712-.607a100.814 100.814 0 0 1 3.764 9.672c.755 2.263 3.249 2.788 5.014 1.324 2.784-2.31 5.02-4.858 7.057-7.836 2.185-3.195-3.012-6.2-5.181-3.028-1.745 2.552-3.753 4.659-6.119 6.621l5.014 1.324a116.168 116.168 0 0 0-4.369-11.105c-.75-1.66-3.566-2.015-4.712-.607l-5.872 7.219c-1.351 1.661-3.532 5.869-5.699 6.173l2.919.771c-1.789-1.513-2.581-5.855-3.315-8.009-.937-2.747-1.795-5.522-2.825-8.237-1.185-3.126-2.58-8.885-6.326-9.899-3.168-.858-6.57 2.438-8.571 4.43-3.294 3.279-5.501 7.292-6.86 11.709-1.138 3.697 4.652 5.279 5.785 1.594zM1726.084 1168.579c.915-2.975 2.273-5.665 4.334-8.021a20.405 20.405 0 0 1 2.565-2.492c1.955-.787 2.372-1.216 1.251-1.288-.946-.28-.839.213.321 1.479a255.899 255.899 0 0 0 6.95 18.852c1.322 3.197 3.368 6.444 7.348 4.416 2.117-1.079 3.74-4.009 5.191-5.792l7.047-8.663-4.712-.607a100.917 100.917 0 0 1 3.764 9.672c.755 2.263 3.249 2.788 5.014 1.324 2.784-2.31 5.02-4.858 7.057-7.835 2.186-3.195-3.012-6.2-5.181-3.028-1.745 2.551-3.753 4.659-6.119 6.621l5.014 1.324a116.168 116.168 0 0 0-4.369-11.105c-.75-1.66-3.566-2.015-4.712-.607l-5.872 7.219c-1.351 1.661-3.532 5.869-5.699 6.173l2.919.771c-1.789-1.513-2.581-5.855-3.315-8.009-.937-2.747-1.795-5.522-2.825-8.237-1.185-3.127-2.58-8.885-6.326-9.899-3.168-.858-6.57 2.438-8.571 4.43-3.294 3.279-5.501 7.292-6.86 11.709-1.137 3.697 4.652 5.279 5.786 1.593zM1833.415 1034.183c.915-2.975 2.273-5.665 4.334-8.021a20.346 20.346 0 0 1 2.566-2.492c1.955-.787 2.372-1.216 1.251-1.288-.946-.28-.839.213.321 1.479a255.899 255.899 0 0 0 6.95 18.852c1.322 3.197 3.368 6.444 7.348 4.416 2.117-1.079 3.74-4.009 5.191-5.792l7.047-8.663-4.712-.607a100.917 100.917 0 0 1 3.764 9.672c.755 2.263 3.249 2.788 5.014 1.324 2.784-2.31 5.02-4.858 7.057-7.835 2.185-3.195-3.012-6.2-5.181-3.028-1.745 2.552-3.753 4.658-6.119 6.621l5.014 1.324a116.168 116.168 0 0 0-4.369-11.105c-.75-1.66-3.566-2.015-4.712-.607l-5.872 7.219c-1.351 1.661-3.532 5.869-5.699 6.173l2.919.772c-1.789-1.513-2.581-5.855-3.315-8.009-.937-2.747-1.795-5.522-2.825-8.237-1.185-3.126-2.58-8.885-6.326-9.899-3.168-.858-6.57 2.438-8.571 4.43-3.294 3.279-5.501 7.292-6.86 11.709-1.139 3.696 4.651 5.277 5.785 1.592zM1844.432 1145.699c.915-2.975 2.273-5.665 4.334-8.021a20.346 20.346 0 0 1 2.566-2.492c1.955-.787 2.372-1.216 1.251-1.288-.946-.281-.839.213.321 1.479a255.899 255.899 0 0 0 6.95 18.852c1.322 3.197 3.368 6.444 7.348 4.416 2.117-1.079 3.74-4.009 5.191-5.792l7.047-8.663-4.712-.607a100.917 100.917 0 0 1 3.764 9.672c.755 2.263 3.249 2.788 5.014 1.324 2.784-2.31 5.02-4.858 7.057-7.835 2.185-3.195-3.012-6.2-5.181-3.028-1.745 2.552-3.753 4.659-6.118 6.621l5.014 1.324a116.168 116.168 0 0 0-4.369-11.105c-.75-1.66-3.566-2.016-4.712-.607l-5.872 7.219c-1.351 1.661-3.532 5.869-5.699 6.173l2.919.771c-1.789-1.513-2.581-5.855-3.315-8.009-.937-2.747-1.795-5.522-2.825-8.237-1.185-3.126-2.58-8.885-6.326-9.899-3.168-.858-6.57 2.438-8.571 4.43-3.294 3.279-5.501 7.292-6.86 11.709-1.139 3.697 4.651 5.279 5.784 1.593zM1928.827 1200.027c.915-2.975 2.273-5.665 4.334-8.021a20.346 20.346 0 0 1 2.566-2.492c1.955-.787 2.372-1.216 1.251-1.288-.946-.28-.839.213.321 1.479a256.067 256.067 0 0 0 6.95 18.852c1.322 3.197 3.368 6.444 7.348 4.416 2.117-1.079 3.74-4.009 5.191-5.792l7.047-8.663-4.712-.607a100.917 100.917 0 0 1 3.764 9.672c.755 2.263 3.249 2.788 5.014 1.324 2.784-2.31 5.02-4.858 7.057-7.835 2.186-3.195-3.012-6.2-5.181-3.028-1.745 2.552-3.753 4.659-6.118 6.621l5.014 1.324a116.168 116.168 0 0 0-4.369-11.105c-.75-1.66-3.566-2.015-4.712-.607l-5.872 7.219c-1.351 1.661-3.532 5.869-5.699 6.174l2.919.771c-1.789-1.513-2.581-5.855-3.315-8.009-.937-2.747-1.795-5.522-2.825-8.237-1.185-3.126-2.58-8.885-6.326-9.899-3.168-.858-6.57 2.438-8.571 4.43-3.294 3.279-5.501 7.292-6.86 11.709-1.14 3.696 4.65 5.278 5.784 1.592zM1985.451 1284.228c.915-2.975 2.273-5.665 4.334-8.021a20.346 20.346 0 0 1 2.566-2.492c1.955-.787 2.372-1.216 1.251-1.288-.946-.28-.839.213.321 1.479a256.067 256.067 0 0 0 6.95 18.852c1.322 3.197 3.368 6.444 7.348 4.416 2.117-1.079 3.74-4.009 5.191-5.792l7.047-8.663-4.712-.607a100.917 100.917 0 0 1 3.764 9.672c.755 2.263 3.249 2.788 5.014 1.324 2.784-2.31 5.02-4.858 7.057-7.836 2.186-3.195-3.012-6.2-5.181-3.028-1.745 2.552-3.753 4.658-6.119 6.621l5.014 1.324a116.168 116.168 0 0 0-4.369-11.105c-.75-1.66-3.566-2.015-4.712-.607l-5.872 7.219c-1.351 1.661-3.532 5.869-5.699 6.173l2.919.771c-1.789-1.513-2.581-5.855-3.315-8.009-.937-2.747-1.795-5.522-2.825-8.237-1.185-3.126-2.58-8.885-6.326-9.899-3.168-.858-6.57 2.438-8.571 4.43-3.294 3.279-5.501 7.292-6.86 11.709-1.139 3.698 4.651 5.28 5.785 1.594zM2038.039 1200.027c.915-2.975 2.272-5.665 4.334-8.021a20.405 20.405 0 0 1 2.565-2.492c1.955-.787 2.372-1.216 1.251-1.288-.946-.28-.839.213.321 1.479a256.067 256.067 0 0 0 6.95 18.852c1.323 3.197 3.368 6.444 7.348 4.416 2.117-1.079 3.74-4.009 5.191-5.792l7.047-8.663-4.712-.607a100.917 100.917 0 0 1 3.764 9.672c.755 2.263 3.249 2.788 5.014 1.324 2.784-2.31 5.02-4.858 7.057-7.835 2.185-3.195-3.012-6.2-5.181-3.028-1.745 2.552-3.753 4.659-6.118 6.621l5.014 1.324a116.168 116.168 0 0 0-4.369-11.105c-.75-1.66-3.566-2.015-4.712-.607l-5.872 7.219c-1.351 1.661-3.532 5.869-5.699 6.174l2.919.771c-1.789-1.513-2.581-5.855-3.315-8.009-.937-2.747-1.795-5.522-2.825-8.237-1.185-3.126-2.58-8.885-6.326-9.899-3.168-.858-6.57 2.438-8.571 4.43-3.294 3.279-5.501 7.292-6.86 11.709-1.138 3.696 4.652 5.278 5.785 1.592zM2148.136 1123.357l-1.98 4.59c-.11.26-.22.51-.33.77v.01c-1.64 3.78-3.28 7.59-4.92 11.38v.01c-.89 1.16-1.87 2.24-2.98 2.8-3.98 2.03-6.03-1.21-7.35-4.41-2.52-6.09-4.93-12.59-6.95-18.85-.22-.24-.4-.45-.54-.64-.28.13-.62.28-1.03.45-.93.74-1.79 1.59-2.57 2.49-2.06 2.35-3.42 5.04-4.33 8.02-1.14 3.68-6.93 2.1-5.79-1.6 1.36-4.41 3.57-8.43 6.86-11.7 2-2 5.41-5.29 8.57-4.43 3.75 1.01 5.14 6.77 6.33 9.89 1.03 2.72 1.89 5.5 2.82 8.24.54 1.59 1.12 4.36 2.09 6.31 1.57-1.41 3.01-4.02 4.01-5.24 1.96-2.41 3.91-4.82 5.87-7.22.52-.63 1.37-.91 2.22-.87zM2096.786 1015.557c-.61-.79-.54-1.07.22-.84.89.06.82.33-.22.84zM2134.986 1027.557c-2.03 2.98-4.27 5.53-7.05 7.84-1.77 1.46-4.26.94-5.02-1.32-.62-1.85-1.27-3.66-1.99-5.46-1.37 1.69-2.74 3.37-4.11 5.05-1.45 1.79-3.07 4.72-5.19 5.8-3.98 2.02-6.02-1.22-7.34-4.42-.25-.6-.5-1.21-.74-1.82.25-.4.51-.79.76-1.19 1.11-1.73 2.22-3.47 3.33-5.19 0 .02.01.05.02.07.54 1.59 1.11 4.36 2.09 6.31 1.56-1.4 3.01-4.02 4.01-5.24 1.95-2.41 3.91-4.82 5.87-7.22 1.14-1.41 3.96-1.05 4.71.61.98 2.17 1.9 4.37 2.74 6.59.98-1.06 1.89-2.19 2.73-3.43 2.17-3.18 7.37-.17 5.18 3.02zM1756.482 1299.952c.915-2.975 2.273-5.665 4.334-8.021a20.405 20.405 0 0 1 2.565-2.492c1.955-.787 2.372-1.216 1.251-1.288-.946-.28-.839.213.321 1.479a255.899 255.899 0 0 0 6.95 18.852c1.322 3.197 3.368 6.444 7.348 4.416 2.117-1.079 3.741-4.009 5.191-5.792l7.047-8.663-4.712-.607a100.917 100.917 0 0 1 3.764 9.672c.755 2.263 3.249 2.788 5.014 1.324 2.784-2.31 5.02-4.858 7.057-7.835 2.185-3.195-3.012-6.2-5.181-3.028-1.745 2.552-3.753 4.659-6.119 6.621l5.014 1.324a116.168 116.168 0 0 0-4.369-11.105c-.75-1.66-3.566-2.015-4.712-.607l-5.872 7.219c-1.351 1.661-3.532 5.869-5.699 6.173l2.919.771c-1.789-1.513-2.581-5.855-3.315-8.009-.937-2.747-1.795-5.522-2.825-8.237-1.185-3.126-2.58-8.885-6.326-9.899-3.168-.858-6.57 2.438-8.571 4.43-3.294 3.279-5.501 7.292-6.86 11.709-1.137 3.697 4.653 5.279 5.786 1.593zM1775.711 1462.345c.915-2.975 2.272-5.665 4.334-8.021a20.346 20.346 0 0 1 2.566-2.492c1.955-.787 2.372-1.216 1.251-1.288-.946-.28-.839.213.321 1.479a256.067 256.067 0 0 0 6.95 18.852c1.322 3.197 3.368 6.444 7.348 4.416 2.117-1.078 3.74-4.009 5.191-5.792l7.047-8.663-4.712-.607a100.814 100.814 0 0 1 3.764 9.672c.755 2.263 3.249 2.788 5.014 1.324 2.784-2.31 5.02-4.858 7.057-7.835 2.185-3.195-3.012-6.2-5.181-3.028-1.745 2.552-3.753 4.659-6.119 6.621l5.014 1.324a116.168 116.168 0 0 0-4.369-11.105c-.75-1.66-3.566-2.015-4.712-.607l-5.872 7.219c-1.351 1.661-3.532 5.869-5.699 6.174l2.919.771c-1.789-1.513-2.581-5.855-3.315-8.009-.937-2.747-1.796-5.522-2.825-8.237-1.185-3.126-2.58-8.885-6.326-9.899-3.168-.858-6.57 2.438-8.571 4.43-3.294 3.279-5.501 7.292-6.86 11.709-1.139 3.696 4.651 5.278 5.785 1.592zM1743.756 1416.647c-2.04 2.97-4.28 5.52-7.06 7.83-1.76 1.47-4.26.94-5.01-1.32-.62-1.84-1.28-3.66-1.99-5.46-1.37 1.69-2.74 3.37-4.11 5.06-1.45 1.78-3.08 4.71-5.19 5.79-.57.29-1.1.47-1.6.56-.25-1.84-.51-3.69-.77-5.55-.03-.26-.07-.52-.1-.78-.15-1.04-.29-2.07-.43-3.11.29.93.62 1.85 1.01 2.64 1.56-1.39 3.01-4.01 4.01-5.24l5.87-7.22c1.15-1.41 3.96-1.05 4.71.61.99 2.18 1.9 4.36 2.75 6.58.98-1.06 1.88-2.19 2.73-3.42 2.17-3.17 7.36-.17 5.18 3.03zM1816.116 1126.077c-.47.46-.97.85-1.5 1.12-3.98 2.03-6.03-1.22-7.35-4.42-2.52-6.09-4.93-12.59-6.95-18.85-.22-.24-.41-.46-.55-.64-.27.14-.61.29-1.02.45-.93.75-1.79 1.6-2.57 2.49-2.06 2.36-3.42 5.05-4.33 8.02-1.14 3.69-6.93 2.11-5.79-1.59 1.36-4.42 3.57-8.43 6.86-11.71 2-1.99 5.4-5.29 8.57-4.43 3.75 1.01 5.14 6.77 6.33 9.9 1.03 2.71 1.89 5.49 2.82 8.24.54 1.58 1.12 4.35 2.09 6.3.88-.78 1.72-1.95 2.47-3.04.32 2.71.63 5.43.92 8.16zM1388.19 1351.367c.915-2.975 2.272-5.665 4.334-8.021a20.405 20.405 0 0 1 2.565-2.492c1.955-.787 2.372-1.216 1.251-1.288-.946-.28-.839.213.321 1.479a255.899 255.899 0 0 0 6.95 18.852c1.322 3.197 3.368 6.444 7.348 4.416 2.117-1.079 3.741-4.009 5.191-5.793l7.047-8.663-4.712-.607a100.917 100.917 0 0 1 3.764 9.672c.755 2.263 3.249 2.788 5.014 1.324 2.784-2.31 5.02-4.858 7.057-7.836 2.185-3.195-3.012-6.2-5.181-3.028-1.745 2.552-3.753 4.659-6.119 6.621l5.014 1.324a116.168 116.168 0 0 0-4.369-11.105c-.75-1.66-3.566-2.015-4.712-.607l-5.872 7.219c-1.351 1.661-3.532 5.869-5.699 6.173l2.919.771c-1.789-1.513-2.581-5.855-3.315-8.009-.937-2.747-1.795-5.522-2.825-8.237-1.186-3.126-2.58-8.885-6.326-9.899-3.168-.858-6.57 2.438-8.571 4.43-3.294 3.279-5.501 7.292-6.86 11.709-1.138 3.699 4.652 5.281 5.786 1.595zM1653.234 1340.546c.915-2.975 2.272-5.665 4.334-8.021a20.405 20.405 0 0 1 2.565-2.492c1.955-.787 2.372-1.216 1.251-1.288-.946-.28-.839.213.321 1.479a256.067 256.067 0 0 0 6.95 18.852c1.322 3.197 3.368 6.444 7.348 4.416 2.117-1.079 3.741-4.009 5.191-5.792l7.047-8.663-4.712-.607a100.917 100.917 0 0 1 3.764 9.672c.755 2.263 3.249 2.788 5.014 1.324 2.784-2.31 5.02-4.858 7.057-7.836 2.185-3.195-3.012-6.2-5.181-3.028-1.745 2.551-3.753 4.658-6.119 6.621l5.014 1.324a116.168 116.168 0 0 0-4.369-11.105c-.75-1.66-3.566-2.016-4.712-.607l-5.872 7.219c-1.351 1.661-3.532 5.869-5.699 6.173l2.919.771c-1.789-1.513-2.581-5.855-3.315-8.009-.937-2.747-1.795-5.522-2.825-8.237-1.186-3.126-2.58-8.885-6.326-9.899-3.168-.858-6.57 2.438-8.571 4.43-3.294 3.279-5.501 7.292-6.86 11.709-1.138 3.698 4.652 5.279 5.786 1.594zM1546.527 1406.499c.915-2.975 2.273-5.665 4.334-8.021a20.346 20.346 0 0 1 2.566-2.492c1.955-.787 2.372-1.216 1.251-1.288-.946-.28-.839.213.321 1.479a255.899 255.899 0 0 0 6.95 18.852c1.322 3.197 3.368 6.444 7.348 4.416 2.117-1.079 3.74-4.009 5.191-5.792l7.047-8.663-4.712-.607a100.917 100.917 0 0 1 3.764 9.672c.755 2.263 3.249 2.788 5.014 1.324 2.784-2.31 5.02-4.858 7.057-7.836 2.185-3.195-3.012-6.2-5.181-3.028-1.745 2.551-3.753 4.658-6.119 6.621l5.014 1.324a116.168 116.168 0 0 0-4.369-11.105c-.75-1.66-3.566-2.016-4.712-.607l-5.872 7.219c-1.351 1.661-3.532 5.869-5.699 6.173l2.919.771c-1.789-1.513-2.581-5.855-3.315-8.009-.937-2.747-1.796-5.522-2.825-8.237-1.185-3.126-2.58-8.885-6.326-9.899-3.168-.858-6.57 2.438-8.571 4.43-3.294 3.279-5.501 7.292-6.86 11.709-1.138 3.698 4.652 5.28 5.785 1.594zM1478.022 1272.747c.915-2.975 2.273-5.665 4.334-8.021a20.346 20.346 0 0 1 2.566-2.492c1.955-.787 2.372-1.216 1.251-1.288-.946-.28-.839.213.321 1.479a256.067 256.067 0 0 0 6.95 18.852c1.322 3.197 3.368 6.444 7.348 4.416 2.117-1.079 3.74-4.009 5.191-5.792l7.047-8.663-4.712-.607a100.917 100.917 0 0 1 3.764 9.672c.755 2.263 3.249 2.788 5.014 1.324 2.784-2.31 5.02-4.858 7.057-7.835 2.185-3.195-3.012-6.2-5.181-3.028-1.745 2.552-3.753 4.659-6.118 6.621l5.014 1.324a116.168 116.168 0 0 0-4.369-11.105c-.75-1.66-3.566-2.015-4.712-.607l-5.872 7.219c-1.351 1.661-3.532 5.869-5.699 6.174l2.919.771c-1.789-1.513-2.581-5.855-3.315-8.009-.937-2.747-1.796-5.522-2.825-8.237-1.185-3.126-2.58-8.885-6.326-9.899-3.168-.858-6.57 2.438-8.571 4.43-3.294 3.279-5.501 7.292-6.86 11.709-1.14 3.696 4.65 5.277 5.784 1.592zM1632.435 1513.947c.915-2.975 2.272-5.665 4.334-8.021a20.475 20.475 0 0 1 2.565-2.492c1.955-.787 2.372-1.216 1.251-1.288-.946-.28-.839.213.321 1.479a256.067 256.067 0 0 0 6.95 18.852c1.322 3.197 3.368 6.444 7.348 4.416 2.117-1.079 3.74-4.009 5.191-5.792l7.047-8.663-4.712-.607a100.814 100.814 0 0 1 3.764 9.672c.755 2.263 3.249 2.788 5.014 1.324 2.784-2.31 5.02-4.858 7.057-7.835 2.185-3.195-3.012-6.2-5.181-3.028-1.745 2.552-3.753 4.658-6.119 6.621l5.014 1.324a116.168 116.168 0 0 0-4.369-11.105c-.75-1.66-3.566-2.015-4.712-.607l-5.872 7.219c-1.351 1.661-3.532 5.869-5.699 6.173l2.919.772c-1.789-1.513-2.581-5.855-3.315-8.009-.937-2.747-1.795-5.522-2.825-8.237-1.185-3.126-2.58-8.885-6.326-9.899-3.168-.858-6.57 2.438-8.571 4.43-3.294 3.279-5.501 7.292-6.86 11.709-1.138 3.696 4.652 5.277 5.786 1.592zM1312.086 1434.721c.915-2.975 2.272-5.665 4.334-8.021a20.405 20.405 0 0 1 2.565-2.492c1.955-.787 2.372-1.216 1.251-1.288-.946-.28-.839.213.321 1.479a255.899 255.899 0 0 0 6.95 18.852c1.322 3.197 3.368 6.444 7.348 4.416 2.117-1.079 3.741-4.009 5.191-5.792l7.047-8.663-4.712-.607a100.917 100.917 0 0 1 3.764 9.672c.755 2.263 3.249 2.788 5.014 1.324 2.784-2.31 5.02-4.858 7.057-7.836 2.185-3.195-3.012-6.2-5.181-3.028-1.745 2.552-3.753 4.659-6.119 6.621l5.014 1.324a116.168 116.168 0 0 0-4.369-11.105c-.75-1.66-3.566-2.015-4.712-.607l-5.872 7.219c-1.351 1.661-3.532 5.869-5.699 6.173l2.919.771c-1.789-1.513-2.581-5.855-3.315-8.009-.937-2.747-1.795-5.522-2.825-8.237-1.185-3.126-2.58-8.885-6.326-9.899-3.168-.858-6.57 2.438-8.571 4.43-3.294 3.279-5.501 7.292-6.86 11.709-1.137 3.698 4.653 5.279 5.786 1.594zM1433.625 1489.998c.915-2.975 2.273-5.665 4.334-8.021a20.346 20.346 0 0 1 2.566-2.492c1.955-.787 2.372-1.216 1.251-1.288-.946-.28-.839.213.321 1.479a256.067 256.067 0 0 0 6.95 18.852c1.322 3.197 3.368 6.444 7.348 4.416 2.117-1.079 3.74-4.009 5.191-5.792l7.047-8.663-4.712-.607a100.814 100.814 0 0 1 3.764 9.672c.755 2.263 3.249 2.788 5.014 1.324 2.784-2.31 5.02-4.858 7.057-7.835 2.185-3.195-3.012-6.2-5.181-3.028-1.745 2.551-3.753 4.658-6.119 6.621l5.014 1.324a116.168 116.168 0 0 0-4.369-11.105c-.75-1.66-3.566-2.015-4.712-.607l-5.872 7.219c-1.351 1.661-3.532 5.869-5.699 6.173l2.919.772c-1.789-1.513-2.581-5.855-3.315-8.009-.937-2.747-1.795-5.522-2.825-8.237-1.185-3.126-2.58-8.885-6.326-9.899-3.168-.858-6.57 2.438-8.571 4.43-3.294 3.279-5.501 7.292-6.86 11.709-1.138 3.696 4.651 5.278 5.785 1.592zM1612.405 1230.241c.915-2.975 2.272-5.665 4.334-8.021a20.405 20.405 0 0 1 2.565-2.492c1.955-.787 2.372-1.216 1.251-1.288-.946-.28-.839.213.321 1.479a256.067 256.067 0 0 0 6.95 18.852c1.322 3.197 3.368 6.444 7.348 4.416 2.117-1.079 3.74-4.009 5.191-5.792l7.047-8.663-4.712-.607a100.917 100.917 0 0 1 3.764 9.672c.755 2.263 3.249 2.788 5.014 1.324 2.784-2.31 5.02-4.858 7.057-7.836 2.185-3.195-3.012-6.2-5.181-3.028-1.745 2.551-3.753 4.658-6.119 6.621l5.014 1.324a116.168 116.168 0 0 0-4.369-11.105c-.75-1.66-3.566-2.016-4.712-.607l-5.872 7.219c-1.351 1.661-3.532 5.869-5.699 6.173l2.919.771c-1.789-1.513-2.581-5.855-3.315-8.009-.937-2.747-1.795-5.522-2.825-8.237-1.185-3.126-2.58-8.885-6.326-9.899-3.168-.858-6.57 2.438-8.571 4.43-3.294 3.279-5.501 7.292-6.86 11.709-1.137 3.698 4.653 5.28 5.786 1.594zM1407.33 1184.303c.915-2.975 2.273-5.665 4.334-8.021a20.346 20.346 0 0 1 2.566-2.492c1.955-.787 2.372-1.216 1.251-1.288-.946-.28-.839.213.321 1.479a255.899 255.899 0 0 0 6.95 18.852c1.322 3.197 3.368 6.444 7.348 4.416 2.117-1.079 3.74-4.009 5.191-5.792l7.047-8.663-4.712-.607a100.917 100.917 0 0 1 3.764 9.672c.755 2.263 3.249 2.788 5.014 1.324 2.784-2.31 5.02-4.858 7.057-7.835 2.186-3.195-3.012-6.2-5.181-3.028-1.745 2.552-3.753 4.659-6.118 6.621l5.014 1.324a116.168 116.168 0 0 0-4.369-11.105c-.75-1.66-3.566-2.015-4.712-.607l-5.872 7.219c-1.351 1.661-3.532 5.869-5.699 6.173l2.919.771c-1.789-1.513-2.581-5.855-3.315-8.009-.937-2.747-1.795-5.522-2.825-8.237-1.185-3.127-2.58-8.885-6.326-9.899-3.168-.858-6.57 2.438-8.571 4.43-3.294 3.279-5.501 7.292-6.86 11.709-1.139 3.697 4.651 5.279 5.784 1.593zM1638.7 1129.975c.915-2.975 2.273-5.665 4.334-8.021a20.405 20.405 0 0 1 2.565-2.492c1.955-.787 2.372-1.216 1.251-1.288-.946-.28-.839.213.321 1.479a256.067 256.067 0 0 0 6.95 18.852c1.322 3.197 3.368 6.444 7.348 4.416 2.117-1.079 3.741-4.009 5.191-5.792l7.047-8.663-4.712-.607a100.814 100.814 0 0 1 3.764 9.672c.755 2.263 3.249 2.788 5.014 1.324 2.784-2.31 5.02-4.858 7.057-7.835 2.186-3.195-3.012-6.2-5.181-3.028-1.745 2.552-3.753 4.659-6.119 6.621l5.014 1.324a116.168 116.168 0 0 0-4.369-11.105c-.75-1.66-3.566-2.015-4.712-.607l-5.872 7.219c-1.351 1.661-3.532 5.869-5.699 6.173l2.919.771c-1.789-1.513-2.581-5.855-3.315-8.009-.937-2.747-1.795-5.522-2.825-8.237-1.185-3.126-2.58-8.885-6.326-9.899-3.168-.858-6.57 2.438-8.571 4.43-3.294 3.279-5.501 7.292-6.86 11.709-1.138 3.697 4.652 5.279 5.786 1.593zM1493.938 1129.975c.915-2.975 2.273-5.665 4.334-8.021a20.346 20.346 0 0 1 2.566-2.492c1.955-.787 2.372-1.216 1.251-1.288-.946-.28-.839.213.321 1.479a256.067 256.067 0 0 0 6.95 18.852c1.322 3.197 3.368 6.444 7.348 4.416 2.117-1.079 3.74-4.009 5.191-5.792l7.047-8.663-4.712-.607a100.814 100.814 0 0 1 3.764 9.672c.755 2.263 3.249 2.788 5.014 1.324 2.784-2.31 5.02-4.858 7.057-7.835 2.185-3.195-3.012-6.2-5.181-3.028-1.745 2.552-3.753 4.659-6.119 6.621l5.014 1.324a116.168 116.168 0 0 0-4.369-11.105c-.75-1.66-3.566-2.015-4.712-.607l-5.872 7.219c-1.351 1.661-3.532 5.869-5.699 6.173l2.919.771c-1.789-1.513-2.581-5.855-3.315-8.009-.937-2.747-1.795-5.522-2.825-8.237-1.185-3.126-2.58-8.885-6.326-9.899-3.168-.858-6.57 2.438-8.571 4.43-3.294 3.279-5.501 7.292-6.86 11.709-1.138 3.697 4.652 5.279 5.785 1.593zM1586.111 1061.346c.915-2.975 2.273-5.665 4.334-8.021a20.346 20.346 0 0 1 2.566-2.492c1.955-.787 2.372-1.216 1.251-1.288-.946-.28-.839.213.321 1.479a256.067 256.067 0 0 0 6.95 18.852c1.322 3.197 3.368 6.444 7.348 4.416 2.117-1.079 3.74-4.009 5.191-5.792l7.047-8.663-4.712-.607a100.917 100.917 0 0 1 3.764 9.672c.755 2.263 3.249 2.788 5.014 1.324 2.784-2.31 5.02-4.858 7.057-7.836 2.186-3.195-3.012-6.2-5.181-3.028-1.745 2.552-3.753 4.659-6.119 6.621l5.014 1.324a116.168 116.168 0 0 0-4.369-11.105c-.75-1.66-3.566-2.015-4.712-.607l-5.872 7.219c-1.351 1.661-3.532 5.869-5.699 6.173l2.919.772c-1.789-1.513-2.581-5.855-3.315-8.009-.937-2.747-1.795-5.522-2.825-8.237-1.185-3.126-2.58-8.885-6.326-9.899-3.168-.858-6.57 2.438-8.571 4.43-3.294 3.279-5.501 7.292-6.86 11.709-1.138 3.697 4.651 5.278 5.785 1.593zM1634.925 969.535c.915-2.975 2.272-5.665 4.334-8.021a20.405 20.405 0 0 1 2.565-2.492c1.955-.787 2.372-1.216 1.251-1.288-.946-.28-.839.213.321 1.479a255.899 255.899 0 0 0 6.95 18.852c1.322 3.197 3.368 6.444 7.348 4.416 2.117-1.079 3.74-4.009 5.191-5.792l7.047-8.663-4.712-.607a100.814 100.814 0 0 1 3.764 9.672c.755 2.263 3.249 2.788 5.014 1.324 2.784-2.31 5.02-4.858 7.057-7.836 2.185-3.195-3.012-6.2-5.181-3.028-1.745 2.552-3.753 4.659-6.119 6.621l5.014 1.324a116.168 116.168 0 0 0-4.369-11.105c-.75-1.66-3.566-2.015-4.712-.607l-5.872 7.219c-1.351 1.661-3.532 5.869-5.699 6.173l2.919.772c-1.789-1.513-2.581-5.855-3.315-8.009-.937-2.747-1.795-5.522-2.825-8.237-1.185-3.127-2.58-8.885-6.326-9.899-3.168-.858-6.57 2.438-8.571 4.43-3.294 3.279-5.501 7.292-6.86 11.709-1.138 3.697 4.652 5.278 5.786 1.593zM1752.379 914.236c.915-2.975 2.272-5.665 4.334-8.021a20.346 20.346 0 0 1 2.566-2.492c1.955-.787 2.372-1.216 1.251-1.288-.946-.28-.839.213.321 1.479a255.899 255.899 0 0 0 6.95 18.852c1.322 3.197 3.368 6.444 7.348 4.416 2.117-1.079 3.74-4.009 5.191-5.792l7.047-8.663-4.712-.607a100.814 100.814 0 0 1 3.764 9.672c.755 2.263 3.249 2.788 5.014 1.324 2.784-2.31 5.02-4.858 7.057-7.836 2.185-3.195-3.012-6.2-5.181-3.028-1.745 2.552-3.753 4.659-6.119 6.621l5.014 1.324a116.168 116.168 0 0 0-4.369-11.105c-.75-1.66-3.566-2.015-4.712-.607l-5.872 7.219c-1.351 1.661-3.532 5.869-5.699 6.174l2.919.771c-1.789-1.513-2.581-5.855-3.315-8.009-.937-2.747-1.795-5.522-2.825-8.237-1.186-3.126-2.58-8.885-6.326-9.899-3.168-.858-6.57 2.438-8.571 4.43-3.294 3.279-5.501 7.292-6.86 11.709-1.139 3.697 4.651 5.279 5.785 1.593zM1358.216 1264.567a46.7 46.7 0 0 1-1.38 1.91 36.138 36.138 0 0 1-5.68 5.93c-1.76 1.46-4.26.94-5.01-1.33-.62-1.84-1.27-3.66-1.99-5.45-1.37 1.68-2.74 3.36-4.11 5.05-1.45 1.78-3.07 4.72-5.19 5.79-.08.04-.16.08-.24.11 2.49-6.1 5.13-12.24 7.93-18.44.11-.12.2-.24.3-.36 1.15-1.41 3.97-1.06 4.72.6.98 2.18 1.9 4.37 2.73 6.59.98-1.06 1.89-2.19 2.74-3.43 1.37-2.01 3.96-1.54 5.12-.12.67.83.86 1.98.06 3.15z"/></svg>